<svg width="886" height="840" viewBox="0 0 886 840" fill="none" xmlns="http://www.w3.org/2000/svg">
<g opacity="0.5">
<path fill-rule="evenodd" clip-rule="evenodd" d="M169.908 183.672C168.335 185.243 168.946 190.824 168.913 192.89C168.862 196.106 169.063 199.292 169.331 202.496C169.512 204.642 170.527 225.114 173.353 223.542C174.946 222.656 173.947 216.734 173.944 214.86C173.938 210.696 173.764 206.542 173.487 202.387C173.229 198.529 173.067 194.716 173.215 190.851C173.251 189.908 174.134 179.439 169.908 183.672Z" fill="#89C5CC"/>
<path fill-rule="evenodd" clip-rule="evenodd" d="M238.409 181.149C224.896 181.256 211.388 181.923 197.881 182.331C191.381 182.528 184.886 182.778 178.394 183.138C176.181 183.261 171.436 182.552 169.593 183.731C165.501 186.348 172.1 186.96 173.859 186.896C200.59 185.927 227.329 184.65 254.082 184.59C267.206 184.561 280.323 184.934 293.448 184.851C298.465 184.819 304.02 182.657 305.287 188.497C306.717 195.086 305.074 202.423 304.627 209.045C304.329 213.465 304.435 217.794 304.634 222.211C304.762 225.04 304.429 228.228 304.93 231.005C305.411 233.679 307.333 235.282 309.095 232.287C310.148 230.497 309.624 226.078 309.694 224.005C309.788 221.213 309.7 218.421 309.7 215.628C309.699 208.811 310.661 202.022 310.534 195.206C310.452 190.811 310.219 182.844 304.676 181.788C298.572 180.625 291.069 181.794 284.822 181.723C269.344 181.546 253.892 181.028 238.409 181.149Z" fill="#89C5CC"/>
<path fill-rule="evenodd" clip-rule="evenodd" d="M201.174 223.786C196.078 223.786 190.982 223.817 185.887 223.901C181.517 223.973 174.647 223.063 170.58 224.626C167.795 225.696 167.056 228.805 170.58 229.633C174.423 230.536 180.216 229.059 184.237 228.989C204.401 228.633 224.759 228.169 244.894 229.444C263.762 230.638 282.993 231.797 301.889 230.536C303.478 230.43 311.587 230.107 307.887 227.068C305.728 225.294 296.98 226.46 294.174 226.376C284.28 226.077 274.376 226.011 264.485 225.636C254.723 225.265 245.004 224.168 235.238 223.896C223.893 223.58 212.523 223.786 201.174 223.786Z" fill="#89C5CC"/>
<path fill-rule="evenodd" clip-rule="evenodd" d="M196.076 194.804C204.018 195.151 211.875 206.669 203.839 212.235C196.301 217.459 182.172 211.734 186.364 201.606C185.762 203.07 187.126 200.015 187.143 199.995C187.94 199.056 189.372 198.016 190.354 197.276C191.479 196.428 192.65 195.496 194.005 195.071C194.895 194.792 194.756 195.841 196.076 194.804ZM192.208 190.65C188.491 192.101 186.794 193.738 184.24 196.701C182.472 198.751 180.219 199.83 180.239 202.6C180.243 203.213 181.031 203.887 181.167 204.478C181.355 205.294 181.137 206.34 181.286 207.207C182.824 216.157 193.502 219.174 201.317 217.484C208.126 216.012 213.218 209.477 211.64 202.37C210.053 195.216 199.444 187.819 192.208 190.65Z" fill="#89C5CC"/>
<path fill-rule="evenodd" clip-rule="evenodd" d="M188.896 203.143C188.896 206.362 193.982 206.362 193.982 203.143C193.982 199.96 188.896 199.823 188.896 203.143Z" fill="#89C5CC"/>
<path fill-rule="evenodd" clip-rule="evenodd" d="M195.259 202.491C195.259 205.049 199.299 205.049 199.299 202.491C199.299 199.962 195.259 199.854 195.259 202.491Z" fill="#89C5CC"/>
<path fill-rule="evenodd" clip-rule="evenodd" d="M196.51 207.767C195.216 208.264 193.575 207.233 192.512 207.912C190.631 209.117 192.517 210.206 193.525 210.69C198.066 212.869 198.874 206.861 196.51 207.767Z" fill="#89C5CC"/>
<path fill-rule="evenodd" clip-rule="evenodd" d="M265.85 200.632C265.715 200.689 265.233 200.893 265.85 200.632V200.632ZM246.078 197.742C242.68 198.509 239.811 201.683 236.119 201.258C233.289 200.933 231.374 198.202 228.58 197.806C225.007 197.298 215.283 205.449 220.396 206.847C223.379 207.663 225.033 202.212 227.669 201.922C229.753 201.693 232.588 204.25 234.748 204.614C238.778 205.293 241.546 203.073 245.084 201.641C248.928 200.086 251.115 201.487 254.459 203.216C257.098 204.58 259.583 205.469 262.603 204.906C265.437 204.378 268.997 201.463 271.85 201.762C274.644 202.055 276.638 204.971 279.512 205.242C280.696 205.353 282.46 205.757 282.261 203.929C282.102 202.465 280.469 202.713 279.447 202.181C276.819 200.812 274.361 198.388 271.189 198.595C268.804 198.751 266.632 200.427 264.433 201.229C257.233 203.855 253.186 196.148 246.078 197.742Z" fill="#89C5CC"/>
<path fill-rule="evenodd" clip-rule="evenodd" d="M252.093 244.111C238.204 244.239 224.268 244.445 210.419 245.558C207.135 245.822 173.608 248.988 173.672 249.216C173.789 249.637 178.102 250.282 178.075 250.381C177.784 249.661 177.12 249.362 176.082 249.487C207.88 249.487 239.576 246.64 271.416 247.152C279.416 247.28 287.446 247.227 295.441 247.479C297.437 247.542 302.382 248.972 303.949 248.071C308.063 245.706 300.59 245.433 299.352 245.334C283.683 244.08 267.805 243.954 252.093 244.111Z" fill="#69A1AC"/>
<path fill-rule="evenodd" clip-rule="evenodd" d="M169.556 250.859C167.479 252.941 169.391 260.43 169.473 263.245C169.591 267.314 169.494 271.412 169.851 275.471C170.259 280.107 170.891 285.047 172.107 289.545C172.777 292.023 175.129 295.961 176.061 291.459C176.726 288.242 175.716 283.976 175.364 280.7C174.894 276.317 174.78 271.992 174.763 267.587C174.747 263.75 174.673 259.896 174.358 256.071C174.195 254.085 173.196 247.238 169.556 250.859Z" fill="#69A1AC"/>
<path fill-rule="evenodd" clip-rule="evenodd" d="M221.794 288.998C211.938 289.167 202.061 289.4 192.222 290.015C188.189 290.268 184.16 290.644 180.142 291.07C179.322 291.157 170.247 291.525 174.302 294.875C176.132 296.387 183.661 294.296 186.148 294.078C190.33 293.712 194.511 293.473 198.706 293.296C208.424 292.883 218.172 292.519 227.9 292.688C245.667 292.996 263.319 293.134 281.09 292.737C283.615 292.681 303.396 293.21 304.068 290.583C304.609 288.466 297.535 289.437 296.246 289.475C291.514 289.617 286.782 289.584 282.049 289.56C261.998 289.457 241.83 288.659 221.794 288.998Z" fill="#69A1AC"/>
<path fill-rule="evenodd" clip-rule="evenodd" d="M300.719 247.347C301.032 256.122 302.526 264.887 303.004 273.689C303.222 277.712 303.479 281.732 303.676 285.757C303.74 287.056 303.217 290.184 304.752 290.931C306.858 291.955 307.142 289.891 307.536 288.495C308.675 284.462 307.905 279.224 307.801 275.081C307.701 271.07 307.694 267.051 307.398 263.047C307.095 258.957 306.272 254.943 305.89 250.867C305.728 249.143 306.293 246.274 304.463 245.204C302.881 244.279 300.651 245.445 300.719 247.347Z" fill="#69A1AC"/>
<path fill-rule="evenodd" clip-rule="evenodd" d="M203.845 261.944C203.883 261.973 203.92 262.002 203.957 262.031C203.92 262.002 203.882 261.973 203.845 261.944ZM195.469 259.344C198.593 260.236 201.158 259.904 204.141 262.177C206.614 264.063 209.151 266.821 209.972 269.869C211.867 276.911 205.442 280.771 199.418 280.847C193.248 280.924 184.116 279.493 184.432 271.585C184.674 265.509 189.111 259.58 195.469 259.344ZM195.689 255.364C187.59 255.767 181.057 264.863 181.128 272.518C181.212 281.797 191.726 284.188 199.194 284.252C207.623 284.324 216.029 278.504 213.77 269.025C211.96 261.431 203.478 254.96 195.689 255.364Z" fill="#69A1AC"/>
<path fill-rule="evenodd" clip-rule="evenodd" d="M187.542 267.822C187.542 270.41 191.631 270.41 191.631 267.822C191.631 265.265 187.542 265.155 187.542 267.822Z" fill="#69A1AC"/>
<path fill-rule="evenodd" clip-rule="evenodd" d="M196.117 266.687C196.117 269.295 200.238 269.295 200.238 266.687C200.238 264.109 196.117 263.998 196.117 266.687Z" fill="#69A1AC"/>
<path fill-rule="evenodd" clip-rule="evenodd" d="M191.39 272.589C188.729 275.245 198.077 279.902 200.281 276.207C202.092 273.171 198.149 274.178 196.752 274.014C195.233 273.835 192.63 271.352 191.39 272.589Z" fill="#69A1AC"/>
<path fill-rule="evenodd" clip-rule="evenodd" d="M266.125 266.74C265.868 266.848 265.868 266.848 266.125 266.74V266.74ZM231.022 262.416C228.328 262.921 219.486 265.904 219.367 269.1C219.149 274.91 227.808 268.959 229.688 268.195C234.796 266.119 237.48 270.354 242.612 270.577C247.068 270.771 251.166 266.957 255.364 267.408C259.763 267.881 261.879 272.56 266.957 270.076C269.643 268.762 269.575 266.735 266.56 266.544C264.737 266.429 263.485 267.182 261.584 266.398C258.612 265.172 257.416 263.176 253.859 263.493C251.176 263.733 248.75 265.245 246.131 265.831C240.132 267.171 236.805 261.332 231.022 262.416Z" fill="#69A1AC"/>
<path fill-rule="evenodd" clip-rule="evenodd" d="M286.818 269.263C286.632 269.341 286.632 269.341 286.818 269.263V269.263ZM287.497 266.844C287.527 266.857 287.73 267.139 287.497 266.844V266.844ZM284.409 264.997C284.293 265.087 284.293 265.087 284.409 264.997V264.997ZM284.476 264.974C285.075 265.333 289.89 268.625 286.393 269.401C284.617 269.794 283.148 266.222 284.476 264.974ZM282.882 261.327C275.169 264.844 283.469 277.429 289.522 272.316C292.069 270.164 292.404 265.815 289.926 263.573C288.442 262.23 284.897 260.406 282.882 261.327Z" fill="#69A1AC"/>
<path fill-rule="evenodd" clip-rule="evenodd" d="M210.477 310.921C200.852 310.924 191.143 310.722 181.532 311.292C179.914 311.388 173.752 311.08 172.919 312.771C171.394 315.864 177.734 314.329 178.655 314.236C197.793 312.32 217.784 313.423 236.985 313.969C252.689 314.415 268.308 314.692 283.993 315.502C288.116 315.714 292.235 315.949 296.356 316.198C297.698 316.279 301.078 317.169 301.361 315.024C301.623 313.039 297.407 313.488 296.354 313.432C287.979 312.991 279.61 312.529 271.238 312.058C251.085 310.922 230.661 310.917 210.477 310.921Z" fill="#89C5CC"/>
<path fill-rule="evenodd" clip-rule="evenodd" d="M172.609 314.36C170.812 316.147 171.654 322.971 171.604 325.227C171.517 329.171 171.33 333.113 171.247 337.057C171.16 341.178 171.281 345.319 171.524 349.435C171.627 351.163 173.045 359.515 175.278 354.736C176.276 352.6 175.254 346.651 175.269 344.23C175.297 339.826 175.534 335.44 175.753 331.041C175.942 327.26 175.949 323.475 176.114 319.693C176.166 318.488 176.309 310.65 172.609 314.36Z" fill="#89C5CC"/>
<path fill-rule="evenodd" clip-rule="evenodd" d="M302.98 349.595C293.613 350.555 284.096 350.102 274.694 350.811C266.591 351.422 258.495 351.672 250.371 351.844C231.975 352.232 213.547 352.611 195.204 354.144C191.024 354.493 186.848 354.864 182.657 355.051C180.561 355.145 171.764 354.191 171.109 356.4C169.993 360.164 179.4 358.674 181.429 358.616C185.891 358.487 190.332 358.164 194.781 357.825C213.485 356.4 232.259 355.974 251.003 355.382C261.196 355.06 271.319 354.314 281.49 353.636C286.56 353.298 291.643 353.287 296.712 352.959C298.039 352.873 302.734 353.042 303.688 351.975C304.343 351.242 304.509 349.453 302.98 349.595Z" fill="#89C5CC"/>
<path fill-rule="evenodd" clip-rule="evenodd" d="M299.805 315C300.126 323.983 300.634 332.958 300.937 341.94C301.029 344.641 300.212 349.482 301.717 351.865C304.135 355.695 306.023 351.641 306.466 349.254C307.864 341.721 306.361 333.4 305.97 325.82C305.822 322.929 306.72 316.493 305.322 313.905C303.991 311.44 299.686 311.688 299.805 315Z" fill="#89C5CC"/>
<path fill-rule="evenodd" clip-rule="evenodd" d="M284.08 327.794C287.668 328.766 288.192 336.567 284.143 337.145C278.116 338.004 280.752 329.402 284.08 327.794ZM283.074 324.691C281.98 324.657 279.453 324.355 278.778 325.246C278.214 325.992 278.784 327.565 278.718 328.275C278.481 330.813 276.417 332.279 277.34 335.276C277.966 337.31 279.643 339.221 281.687 339.927C292.472 343.655 292.341 322.816 283.074 324.691Z" fill="#89C5CC"/>
<path fill-rule="evenodd" clip-rule="evenodd" d="M185.702 326.091C185.675 326.125 185.648 326.159 185.622 326.194C185.648 326.159 185.675 326.125 185.702 326.091ZM194.173 321.584C194.131 321.223 194.089 320.862 194.046 320.501C199.894 323.261 204.547 328.396 202.605 335.288C201.124 340.546 195.771 342.411 190.784 341.113C185.264 339.675 182.626 335.125 184.114 329.538C184.801 326.96 186.91 323.496 189.636 322.667C190.904 322.281 193.711 323.265 194.173 321.584ZM190.754 319.401C189.274 319.501 187.835 320.117 186.627 320.96C187.758 320.004 189.264 319.435 190.754 319.401ZM190.796 316.005C187.142 316.117 184.748 318.329 182.58 320.985C181.9 321.819 179.6 324.03 179.885 325.154C180.11 326.042 180.699 327.341 181.94 326.35C175.442 339.3 192.228 350.346 202.475 341.34C212.039 332.936 202.551 315.611 190.796 316.005Z" fill="#89C5CC"/>
<path fill-rule="evenodd" clip-rule="evenodd" d="M187.476 328.035C187.476 329.759 190.153 329.759 190.153 328.035C190.153 326.31 187.476 326.31 187.476 328.035Z" fill="#89C5CC"/>
<path fill-rule="evenodd" clip-rule="evenodd" d="M192.044 328.329C192.044 330.082 194.765 330.082 194.765 328.329C194.765 326.576 192.044 326.576 192.044 328.329Z" fill="#89C5CC"/>
<path fill-rule="evenodd" clip-rule="evenodd" d="M194.118 334.484C192.845 334.587 188.187 334.155 187.369 335.269C186.003 337.132 188.184 337.197 189.255 337.398C190.22 337.579 194.413 337.477 195.004 336.62C195.527 335.863 195.405 334.374 194.118 334.484Z" fill="#89C5CC"/>
<path fill-rule="evenodd" clip-rule="evenodd" d="M250.241 329.653C250.022 329.744 250.022 329.744 250.241 329.653V329.653ZM232.64 328.366C229.772 328.577 227.344 330.226 224.602 330.884C221.676 331.587 220.409 330.295 217.748 329.449C214.98 328.569 213.011 328.917 210.786 330.807C209.526 331.878 206.76 334.344 207.548 336.247C209.352 340.602 213.436 333.516 215.357 333.186C218.353 332.672 221.019 335.292 224.475 334.543C227.606 333.864 230.384 331.714 233.654 331.691C236.389 331.671 238.966 333.168 241.666 333.53C245.788 334.083 248.494 332.619 252.304 331.533C255.608 330.591 257.924 331.833 261.032 332.878C262.452 333.355 267.191 335.091 266.319 331.944C266.072 331.054 259.827 329.464 258.859 329.159C255.445 328.08 253.283 328.5 250.03 329.74C247.318 330.775 245.036 331.279 242.128 330.71C238.924 330.082 236.01 328.11 232.64 328.366Z" fill="#89C5CC"/>
</g>
<g opacity="0.5">
<path fill-rule="evenodd" clip-rule="evenodd" d="M364.575 184.012C365.038 174.055 365.674 164.113 366.009 154.15C366.176 149.214 366.306 144.276 366.432 139.339C366.459 138.239 366.488 137.14 366.513 136.041C366.594 132.306 366.151 132 369.91 131.668C386.679 130.188 403.515 129.698 420.304 128.358C440.553 126.743 460.907 125.628 481.213 125.128C490.236 124.906 499.298 124.445 508.323 124.725C510.322 124.787 514.247 124.267 515.035 125.821C515.375 126.493 514.661 128.804 514.571 129.578C514.288 131.999 514.024 134.428 513.861 136.861C512.901 151.208 513.473 165.917 516.251 180.047C509.734 176.372 501.5 173.211 493.904 173.838C486.16 174.478 480.367 178.952 474.168 183.07C470.662 185.4 469.481 186.012 465.983 183.756C462.968 181.811 460.116 179.588 457.272 177.405C452.883 174.037 448.741 170.386 444.485 166.855C436.66 160.363 425.878 151.122 415.07 153.843C407.348 155.787 400.218 160.031 393.516 164.184C383.558 170.355 374.545 177.912 364.575 184.012ZM498.779 120.304C460.306 120.304 422.121 124.033 383.756 126.051C379.749 126.261 375.756 126.572 371.764 126.957C369.103 127.214 362.596 126.135 360.852 128.409C359.688 129.926 360.688 130.153 360.852 131.595C361.058 133.411 360.936 135.563 360.883 137.486C360.755 142.118 360.62 146.75 360.515 151.383C360.118 168.893 359.869 186.4 360.578 203.905C360.733 207.723 362.124 213.009 361.363 216.719C360.812 219.405 358.97 221.039 363.218 221.535C367.398 222.024 372.509 220.781 376.693 220.383C380.901 219.983 385.108 219.548 389.321 219.201C407.638 217.692 426.133 217.92 444.499 217.418C463.029 216.912 481.567 216.88 500.104 216.869C507.86 216.865 516.723 217.301 524.291 215.167C526.953 214.415 527.384 214.045 526.727 211.404C526.603 210.902 525.799 210.717 525.563 209.811C525.242 208.578 525.407 207.079 525.332 205.796C525.087 201.604 525.001 197.404 524.804 193.21C524.474 186.201 523.266 179.399 522.372 172.461C521.341 164.449 521.394 156.313 521.373 148.248C521.361 143.775 521.476 139.316 521.835 134.855C522.066 131.994 523.475 127.722 522.76 125.054C522.404 123.725 521.822 122.672 520.439 122.1C519.563 121.737 518.826 122.021 517.96 121.929C516.933 121.82 516.292 121.676 515.062 121.398C509.789 120.203 504.151 120.304 498.779 120.304Z" fill="#69A1AC"/>
<path fill-rule="evenodd" clip-rule="evenodd" d="M477.487 139.352C477.484 142.141 477.049 146.255 478.335 148.881C479.965 152.211 482.005 151.17 482.545 148.041C482.855 146.247 482.847 140.941 482.271 139.352C481.456 137.104 477.487 135.573 477.487 139.352Z" fill="#89C5CC"/>
<path fill-rule="evenodd" clip-rule="evenodd" d="M482.165 140.429C479.548 140.521 471.924 139.893 470.153 141.998C467.115 145.608 472.404 146.247 474.674 146.045C477.302 145.811 485.423 146.382 487.183 144.275C490.127 140.749 484.224 140.354 482.165 140.429Z" fill="#89C5CC"/>
<path fill-rule="evenodd" clip-rule="evenodd" d="M380.583 233.579C392.091 235.578 388.511 253.125 377.621 249.06C373.827 247.644 368.236 243.552 370.334 238.731C371.9 235.129 377.006 233.236 380.583 233.579ZM375.818 228.124C368.334 229.384 363.217 237.483 365.783 244.548C368.259 251.363 377.648 256.354 384.573 253.905C391.183 251.566 394.481 242.771 392.252 236.337C389.924 229.615 382.338 227.026 375.818 228.124Z" fill="#89C5CC"/>
<path fill-rule="evenodd" clip-rule="evenodd" d="M445.816 235.632C442.951 235.869 440.475 237.875 437.592 238.231C434.896 238.563 432.662 237.64 430.138 236.903C427.087 236.012 424.289 235.62 421.171 236.412C418.789 237.017 416.439 238.638 413.964 238.834C409.094 239.218 403.434 233.662 399.632 239.946C397.809 242.959 400.456 244.9 403.182 243.495C406.024 242.03 404.629 241.506 408.155 242.371C411.096 243.092 413.474 243.484 416.42 242.473C419.089 241.558 421.432 239.882 424.333 239.694C427.174 239.51 429.645 240.804 432.36 241.362C435.699 242.048 438.653 241.529 441.817 240.482C444.826 239.487 446.027 238.942 449.064 239.83C450.986 240.393 455.187 242.18 457.058 240.74C460.294 238.251 455.962 237.887 454.256 237.533C451.509 236.964 448.667 235.398 445.816 235.632Z" fill="#89C5CC"/>
<path fill-rule="evenodd" clip-rule="evenodd" d="M511.384 233.959C511.407 233.977 511.43 233.995 511.452 234.012C511.43 233.995 511.406 233.977 511.384 233.959ZM508.571 233.371C512.754 233.64 517.277 241.26 511.735 241.53C507.834 241.721 503.469 235.049 508.571 233.371ZM507.984 227.136C494.758 230.829 500.804 249.477 513.562 247.323C519.357 246.344 521.321 239.631 519.405 234.661C518.582 232.526 516.978 230.727 515.061 229.498C513.647 228.592 509.601 226.686 507.984 227.136Z" fill="#89C5CC"/>
<path fill-rule="evenodd" clip-rule="evenodd" d="M446.276 266.065C457.915 265.666 469.555 265.266 481.206 265.158C487.52 265.1 493.8 265.21 500.105 265.572C502.901 265.732 505.696 265.887 508.494 266.005C508.977 266.026 509.644 265.993 510.38 265.957C512.112 265.872 514.227 265.768 515.222 266.294C520.788 269.238 509.448 269.561 508.07 269.538C504.983 269.486 501.899 269.333 498.815 269.181C496.12 269.048 493.425 268.915 490.727 268.848C473.42 268.423 456.007 269.201 438.671 269.975C434.697 270.152 430.727 270.33 426.763 270.492C422.554 270.665 418.347 270.777 414.139 270.888C408.125 271.048 402.111 271.208 396.097 271.546C393.8 271.675 391.504 271.811 389.208 271.948C385.919 272.144 382.63 272.34 379.339 272.513C376.763 272.649 374.186 272.781 371.606 272.846C371.142 272.857 370.537 272.922 369.876 272.992L369.876 272.992H369.876C368.277 273.163 366.353 273.368 365.313 272.943C364.063 272.432 363.051 271.717 363.739 270.201C364.32 268.92 366.433 269.074 367.974 269.186C368.395 269.217 368.773 269.244 369.065 269.238C373.989 269.143 378.902 268.866 383.817 268.565C385.615 268.455 387.412 268.342 389.209 268.229L389.21 268.229L389.21 268.229L389.21 268.229L389.21 268.229C398.567 267.641 407.915 267.053 417.295 266.893C426.959 266.728 436.617 266.396 446.276 266.065ZM507.065 342.668L510.411 342.628C512.139 342.778 512.912 344.592 511.802 345.986C510.953 347.054 507.684 347.102 505.553 347.133C504.962 347.142 504.459 347.15 504.119 347.177C498.556 347.624 493.004 347.825 487.424 347.879C475.674 347.99 463.968 348.494 452.237 349.163C440.229 349.848 428.211 350.105 416.192 350.363H416.191C407.349 350.552 398.506 350.742 389.667 351.101C384.605 351.307 379.542 351.461 374.478 351.594C373.934 351.608 373.21 351.686 372.391 351.774C369.192 352.12 364.544 352.622 363.491 350.081C362.556 347.827 363.855 346.789 365.755 346.317C365.455 344.982 365.511 343.106 365.542 342.031C365.552 341.708 365.559 341.457 365.554 341.315C365.507 339.968 365.473 338.62 365.44 337.272C365.402 335.745 365.365 334.218 365.306 332.691C365.252 331.306 365.203 329.919 365.153 328.531C364.957 323.059 364.761 317.573 364.339 312.123C364.145 309.607 363.837 307.121 363.529 304.639C363.038 300.676 362.547 296.723 362.525 292.678C362.521 291.95 362.484 291.04 362.443 290.013C362.233 284.761 361.901 276.457 365.161 273.928C370.91 270.573 369.773 280.256 369.266 284.577C369.183 285.291 369.116 285.858 369.1 286.197C368.77 293.382 369.218 300.252 369.941 307.392C370.43 312.214 370.144 317.02 369.859 321.834C369.757 323.553 369.655 325.273 369.588 326.996C369.555 327.848 369.525 328.7 369.496 329.551C369.405 332.172 369.315 334.791 369.118 337.409C369.096 337.692 369.089 338.235 369.08 338.929C369.054 340.886 369.013 344.044 368.594 345.961C369.486 345.922 370.351 345.932 371.067 345.94C371.522 345.945 371.917 345.949 372.219 345.94C373.591 345.898 374.964 345.858 376.336 345.818C380.39 345.699 384.444 345.58 388.497 345.428C398.065 345.068 407.636 344.948 417.207 344.828C428.511 344.686 439.816 344.544 451.115 344.007C469.737 343.122 488.423 342.895 507.065 342.668ZM510.519 272.42C510.509 284.729 511.461 296.7 512.573 308.96C513.261 316.543 513.812 324.155 514.251 331.757C514.271 332.109 514.268 332.696 514.264 333.432V333.433C514.242 337.637 514.194 346.695 518.349 344.528C521.486 342.892 520.28 333.405 519.613 328.155L519.613 328.155C519.467 327.004 519.346 326.056 519.303 325.44C519.212 324.127 519.122 322.814 519.032 321.502C518.614 315.408 518.197 309.318 517.647 303.231L517.531 301.947C516.895 294.917 516.259 287.891 516.146 280.827C516.137 280.243 516.193 279.43 516.256 278.51C516.44 275.851 516.685 272.31 515.58 270.898C514.026 268.911 510.522 269.498 510.519 272.42Z" fill="#69A1AC"/>
<path fill-rule="evenodd" clip-rule="evenodd" d="M446.808 302.595C461.675 295.869 476.714 289.065 492.174 284.22C493.291 283.87 493.998 285.022 493.744 285.989C493.483 286.985 491.064 287.835 489.46 288.399C488.981 288.568 488.574 288.711 488.319 288.824C486.16 289.789 483.995 290.741 481.83 291.694C479.613 292.669 477.396 293.645 475.185 294.633C470.587 296.687 465.985 298.733 461.383 300.778C456.454 302.968 451.526 305.158 446.603 307.36C446.416 307.443 446.23 307.527 446.043 307.61C452.737 309.989 459.393 312.474 466.02 315.035C468.285 315.909 470.542 316.803 472.799 317.696C474.076 318.201 475.353 318.706 476.631 319.208C477.047 319.371 477.772 319.593 478.643 319.859C481.481 320.725 485.871 322.066 486.196 323.42C486.724 325.626 480.663 323.492 478.376 322.687C478.072 322.58 477.835 322.497 477.689 322.45C474.315 321.371 470.98 320.17 467.648 318.969L467.187 318.802C464.545 317.851 461.908 316.889 459.271 315.927C454.119 314.049 448.968 312.17 443.789 310.368C443.056 310.113 442.323 309.859 441.59 309.606C433.278 313.34 424.982 317.109 416.714 320.938C412.28 322.992 407.871 325.093 403.473 327.222C402.513 327.687 401.325 328.405 400.034 329.186C396.939 331.056 393.255 333.283 390.721 333.227C389.362 333.197 388.446 332.906 388.304 331.259C388.158 329.559 390.339 328.668 391.907 328.027C392.282 327.873 392.622 327.734 392.887 327.602C397.587 325.251 402.317 322.96 407.059 320.698C416.479 316.205 425.987 311.891 435.529 307.663C435.584 307.639 435.639 307.615 435.693 307.59C430.402 305.8 425.095 304.051 419.777 302.34C419.246 302.169 418.157 301.868 416.726 301.471C409.965 299.599 395.563 295.61 396.204 293.28C396.939 290.615 410.442 295.486 416.42 297.643C417.54 298.047 418.396 298.356 418.854 298.502C426.001 300.779 433.128 303.121 440.218 305.57C442.411 304.585 444.608 303.591 446.808 302.595Z" fill="#89C5CC"/>
<path fill-rule="evenodd" clip-rule="evenodd" d="M383.107 361.133C387.459 361.896 390.529 366.071 390.051 370.442C389.406 376.349 383.519 379.056 378.08 378.286C371.909 377.411 370.611 372.194 373.601 367.176C374.263 366.065 375.024 364.735 376.227 364.15C377.055 363.748 378.109 364.103 378.775 363.779C381.11 362.643 379.706 360.831 383.107 361.133ZM381.126 357.275C375.816 357.953 366.004 364.098 366.501 370.246C366.932 370.959 367.58 371.25 368.445 371.121C368.237 372.453 368.305 373.77 368.649 375.074C369.153 376.766 370.159 378.153 371.508 379.254C374.285 381.524 378.081 382.081 381.539 381.683C387.995 380.941 393.084 376.528 393.447 369.812C393.801 363.257 388.079 356.397 381.126 357.275Z" fill="#89C5CC"/>
<path fill-rule="evenodd" clip-rule="evenodd" d="M406.845 365.275C404.463 366.537 400.694 368.477 399.297 370.875C397.82 373.408 399.349 376.179 402.459 374.981C404.928 374.03 406.498 371.008 409.131 370.039C411.456 369.184 412.392 369.62 414.848 370.471C417.379 371.348 419.592 372.196 422.328 371.98C425.767 371.71 428.745 369.716 432.111 369.263C434.945 368.881 437.282 369.983 439.996 370.422C443.145 370.931 445.203 369.739 448.15 369.118C450.154 368.696 453.686 370.414 455.147 369.771C458.434 368.326 454.957 366.56 453.138 365.976C450.073 364.993 448.187 365.86 445.272 366.676C442.107 367.561 440.739 366.895 437.714 366.082C431.593 364.438 426.864 368.415 421.062 367.692C415.69 367.022 412.476 362.293 406.845 365.275Z" fill="#89C5CC"/>
<path fill-rule="evenodd" clip-rule="evenodd" d="M506.935 362.336C512.827 367.86 506.208 375.719 499.711 371.304C497.425 369.751 497.389 367.255 499.168 365.022C500.796 362.98 504.371 362.184 506.935 362.336ZM504.751 357.872C499.247 358.943 494.054 361.469 493.556 367.822C493.069 374.02 499.428 376.899 504.769 376.493C516.76 375.579 515.893 355.718 504.751 357.872Z" fill="#89C5CC"/>
</g>
<path opacity="0.5" fill-rule="evenodd" clip-rule="evenodd" d="M673.047 111.818C667.776 111.918 654.758 113.783 652.822 119.849C651.353 124.454 655.717 123.443 658.056 121.767C661.22 119.502 663.995 118.145 667.915 117.456C682.85 114.828 697.2 124.252 711.991 125.443C717.594 125.895 724.355 126.189 729.705 124.424C733.514 123.167 734.012 120.426 729.664 120.009C725.97 119.654 721.882 120.772 718.095 120.74C702.424 120.61 688.494 111.532 673.047 111.818" fill="#C1DEE2"/>
<g opacity="0.5">
<path fill-rule="evenodd" clip-rule="evenodd" d="M172.509 399.362C164.085 399.456 155.664 399.767 147.257 400.299C139.262 400.806 130.586 400.421 122.721 401.971C120.488 402.411 117.471 404.446 120.441 406.685C122.528 408.259 130.165 406.449 132.657 406.295C141.836 405.731 151.02 405.055 160.212 404.731C168.914 404.423 177.615 404.315 186.321 404.228C187.651 404.215 189.857 403.789 191.181 404.175C193.083 404.729 192.631 404.88 192.774 407.294C193.032 411.668 192.961 416.058 192.874 420.436C192.79 424.673 192.633 428.909 192.649 433.148C192.659 436.172 191.693 442.181 193.21 444.807C195.394 448.588 197.66 444.482 197.823 441.97C198.136 437.165 197.996 432.302 197.997 427.491C197.998 422.976 198.03 418.46 197.871 413.947C197.756 410.687 198.222 404.996 196.466 402.032C194.677 399.013 190.37 399.664 187.228 399.52C182.326 399.295 177.415 399.311 172.509 399.362Z" fill="#89C5CC"/>
<path fill-rule="evenodd" clip-rule="evenodd" d="M118.909 404.81C118.919 413.294 117.937 421.722 117.662 430.196C117.536 434.093 117.28 438.371 118.266 442.196C119.261 446.058 122.421 446.895 122.785 442.583C123.522 433.853 123.341 424.8 123.915 415.999C124.118 412.892 125.436 407.198 124.205 404.288C123.121 401.725 118.905 401.234 118.909 404.81Z" fill="#89C5CC"/>
<path fill-rule="evenodd" clip-rule="evenodd" d="M197.906 442.207C183.276 444.144 167.981 443.438 153.247 443.743C146.178 443.889 139.111 443.898 132.041 443.972C129.573 443.997 123.307 443.059 121.172 444.446C117.775 446.654 121.461 448.358 123.711 448.407C137.663 448.712 151.771 448.071 165.72 447.613C171.987 447.407 178.275 447.307 184.526 446.774C188.374 446.446 192.579 446.128 196.316 445.094C197.112 444.873 198.846 444.919 199.024 443.833C199.134 443.162 198.935 442.066 197.906 442.207Z" fill="#89C5CC"/>
<path fill-rule="evenodd" clip-rule="evenodd" d="M137.07 454.54C133.004 454.564 120.751 452.675 119.067 456.64C116.822 461.928 125.58 460.694 127.935 460.633C133.284 460.496 138.63 460.481 143.981 460.484C149.231 460.486 154.481 460.452 159.73 460.327C161.251 460.291 164.79 460.922 165.665 459.09C166.33 457.699 165.805 456.601 164.579 455.864C161.628 454.091 153.963 455.119 150.508 454.959C146.036 454.754 141.548 454.54 137.07 454.54Z" fill="#89C5CC"/>
<path fill-rule="evenodd" clip-rule="evenodd" d="M186.537 455.519C184.213 455.657 179.512 454.699 177.431 455.763C175.065 456.972 175.898 458.864 177.941 459.696C179.356 460.272 185.159 459.97 186.537 459.303C187.973 458.607 189.597 455.331 186.537 455.519Z" fill="#89C5CC"/>
<path fill-rule="evenodd" clip-rule="evenodd" d="M212.012 405.643C209.531 406.324 210.283 420.414 210.219 422.647C210.044 428.767 209.356 436.464 211.39 442.358C212.686 446.115 215.177 445.605 214.753 441.65C214.38 438.178 213.741 434.746 213.464 431.252C212.838 423.345 211.986 414.911 212.578 406.997C212.829 407.457 215.184 411.722 215.738 411.403C215.57 411.503 213.022 405.377 212.012 405.643Z" fill="#89C5CC"/>
<path fill-rule="evenodd" clip-rule="evenodd" d="M239.93 400.453C234.907 400.528 229.885 400.617 224.864 400.756C220.871 400.867 214.598 400.211 210.937 401.891C206.577 403.89 208.645 408.345 212.74 408.439C216.363 408.523 220.226 407.706 223.881 407.581C233.754 407.242 243.645 407.171 253.522 407.086C262.456 407.009 271.769 407.962 280.624 406.62C281.937 418.283 278.385 429.995 279.593 441.792C279.78 443.623 279.696 446.21 282.028 446.627C284.971 447.154 285.092 444.239 285.203 442.152C285.522 436.193 285.349 430.229 285.786 424.262C286.19 418.732 286.986 413.081 286.313 407.542C285.486 400.727 282.22 401.273 276.447 400.99C264.254 400.392 252.137 400.274 239.93 400.453Z" fill="#89C5CC"/>
<path fill-rule="evenodd" clip-rule="evenodd" d="M223.097 441.866C220.538 441.931 216.287 441.142 214.647 443.596C212.941 446.15 214.966 448.377 217.446 448.901C220.383 449.521 224.212 448.671 227.26 448.662C230.434 448.652 233.609 448.688 236.783 448.7C250.391 448.753 264.058 448.959 277.656 448.397C279.555 448.318 284.945 448.955 286.26 447.133C287.426 445.518 286.61 444.069 285.074 443.246C282.554 441.895 277.377 442.409 274.574 442.302C271.112 442.17 267.646 442.127 264.182 442.073C250.511 441.862 236.767 441.528 223.097 441.866Z" fill="#89C5CC"/>
<path fill-rule="evenodd" clip-rule="evenodd" d="M234.609 453.67C229.516 453.757 224.083 453.533 219.041 454.306C214.607 454.985 214.062 459.27 218.834 459.772C223.219 460.233 228.536 459.372 232.943 459.089C234.508 458.988 236.329 459.131 237.079 457.4C237.862 455.593 236.365 453.859 234.609 453.67Z" fill="#89C5CC"/>
<path fill-rule="evenodd" clip-rule="evenodd" d="M273.108 454.12C270.39 454.188 262.45 453.019 261.104 456.124C258.863 461.292 269.611 459.329 271.673 459.253C274.271 459.157 284.399 460.675 284.402 456.538C284.404 452.481 275.597 454.059 273.108 454.12Z" fill="#89C5CC"/>
<path fill-rule="evenodd" clip-rule="evenodd" d="M118.47 479.804C118.477 489.206 117.891 498.697 118.749 508.076C119.104 511.955 119.043 519.386 121.29 522.674C122.885 525.008 125.097 524.845 125.968 522.042C126.55 520.168 125.619 516.421 125.515 514.416C125.415 512.493 125.298 510.57 125.209 508.645C124.98 503.688 124.999 498.739 125.067 493.779C125.125 489.524 126.149 483.895 125.184 479.804C124.283 475.991 118.47 475.099 118.47 479.804Z" fill="#69A1AC"/>
<path fill-rule="evenodd" clip-rule="evenodd" d="M212.966 471.532C196.653 471.941 180.304 471.576 164.005 472.383C155.967 472.781 147.961 473.656 139.963 474.527C136.034 474.956 132.107 475.398 128.184 475.881C127.001 476.027 117.165 476.408 120.864 480.148C122.48 481.782 127.62 480.076 129.654 479.835C133.592 479.37 137.538 478.965 141.482 478.548C148.986 477.754 156.5 477.002 164.036 476.585C181.786 475.601 199.608 475.896 217.375 475.241C222.181 475.064 226.973 474.937 231.781 475.126C233.043 475.175 242.32 475.647 238.292 472.22C236.388 470.6 229.207 471.436 226.826 471.387C222.207 471.292 217.584 471.416 212.966 471.532Z" fill="#69A1AC"/>
<path fill-rule="evenodd" clip-rule="evenodd" d="M235.205 487.373C235.124 483.029 235.044 478.685 234.846 474.344C234.638 469.773 240.864 469.081 242.711 472.781C244.04 475.445 243.807 479.977 243.606 483.862C243.525 485.427 243.45 486.888 243.485 488.078C243.564 490.806 243.765 493.628 243.968 496.486C244.48 503.68 245.008 511.111 243.664 517.902C243.01 521.202 240.226 522.936 238.373 521.138C238.371 521.141 238.368 521.145 238.366 521.149C237.669 522.176 235.499 522.174 233.902 522.172C233.462 522.172 233.065 522.171 232.754 522.192C228.377 522.49 224.081 522.992 219.743 523.642C211.099 524.938 202.53 525.734 193.793 525.95C187.864 526.097 181.927 526.146 175.988 526.196C164.617 526.29 153.239 526.384 141.904 527.162C138.082 527.425 134.318 527.875 130.559 528.594C130.239 528.655 129.884 528.734 129.506 528.819C126.711 529.44 122.664 530.34 122.388 526.434C122.059 521.798 132.107 521.19 137.278 520.878C138.067 520.83 138.743 520.789 139.251 520.742C154.952 519.282 170.899 519.508 186.666 519.732C187.43 519.742 188.193 519.753 188.956 519.764C190.187 519.781 191.417 519.801 192.647 519.821C199.398 519.933 206.14 520.044 212.889 519.631C215.96 519.443 219.071 519.346 222.189 519.25C227.161 519.096 232.149 518.941 237.012 518.414C236.279 515.57 236.151 512.214 236.03 509.051C235.983 507.819 235.937 506.617 235.857 505.485C235.429 499.456 235.317 493.415 235.205 487.373Z" fill="#69A1AC"/>
<path fill-rule="evenodd" clip-rule="evenodd" d="M248.408 477.693C246.204 477.992 244.366 479.879 245.35 482.271C246.589 485.283 250.28 484.106 252.718 483.915C260.468 483.308 268.56 484.521 276.217 483.606C278.308 483.356 281.341 482.217 279.464 479.407C278.053 477.296 272.911 477.666 270.725 477.464C263.25 476.772 255.873 476.957 248.408 477.693Z" fill="#C1DEE2"/>
<path fill-rule="evenodd" clip-rule="evenodd" d="M261.488 490.834C258.482 491.036 251.486 490.877 250.219 494.297C247.947 500.432 256.846 498.27 259.556 497.921C262.703 497.516 270.123 498.601 271.799 495.549C274.796 490.091 264.124 490.652 261.488 490.834Z" fill="#C1DEE2"/>
<path fill-rule="evenodd" clip-rule="evenodd" d="M253.759 504.298C252.333 505.724 252.331 508.271 253.759 509.698C255.507 511.445 259.317 511.082 261.614 511.209C264.818 511.388 274.021 513.083 275.612 509.31C277.759 504.219 269.425 504.326 266.684 504.037C263.516 503.704 256.385 501.671 253.759 504.298Z" fill="#C1DEE2"/>
<path fill-rule="evenodd" clip-rule="evenodd" d="M141.437 417.159C141.437 422.632 149.985 422.632 149.985 417.159C149.985 411.715 141.437 411.632 141.437 417.159Z" fill="#89C5CC"/>
<path fill-rule="evenodd" clip-rule="evenodd" d="M157.651 417.221C157.651 423.478 167.387 423.465 167.387 417.221C167.387 410.985 157.651 410.922 157.651 417.221Z" fill="#89C5CC"/>
<path fill-rule="evenodd" clip-rule="evenodd" d="M147.842 425.54C143.109 426.847 147.469 430.858 149.667 431.774C153.16 433.23 157.926 434.304 161.42 432.12C162.81 431.251 163.938 430.097 162.92 428.411C161.834 426.615 160.348 427.414 158.696 427.579C156.603 427.79 154.911 427.757 152.889 427.086C151.381 426.585 149.488 425.087 147.842 425.54Z" fill="#89C5CC"/>
<path fill-rule="evenodd" clip-rule="evenodd" d="M233.69 417.505C233.69 421.207 239.438 421.207 239.438 417.505C239.438 413.803 233.69 413.803 233.69 417.505Z" fill="#89C5CC"/>
<path fill-rule="evenodd" clip-rule="evenodd" d="M246.402 418.062C246.402 422.175 252.787 422.176 252.787 418.062C252.787 413.949 246.402 413.949 246.402 418.062Z" fill="#89C5CC"/>
<path fill-rule="evenodd" clip-rule="evenodd" d="M245.929 426.988C242.575 427.421 232.873 428.404 232.33 432.539C231.493 438.918 242.123 433.755 244.549 433.254C247.639 432.616 250.399 432.783 253.484 432.907C255.177 432.974 257.43 433.249 257.253 430.669C256.962 426.432 248.861 426.612 245.929 426.988Z" fill="#89C5CC"/>
<path fill-rule="evenodd" clip-rule="evenodd" d="M161.592 485.814C159.16 486.463 155.98 490.666 157.653 493.239C160.395 497.458 161.605 490.98 162.753 490.356C164.842 489.222 166.537 493.368 168.72 491.193C172.164 487.761 163.76 485.234 161.592 485.814Z" fill="#69A1AC"/>
<path fill-rule="evenodd" clip-rule="evenodd" d="M189.45 482.696C186.567 482.722 180.48 486.804 180.049 489.818C179.793 491.609 180.98 493.33 182.911 493.354C185.54 493.386 186.375 489.968 188.654 489.253C191.112 488.482 190.747 490.258 192.87 491.178C194.424 491.852 196.367 491.57 196.906 489.66C197.925 486.057 192.413 482.639 189.45 482.696Z" fill="#69A1AC"/>
<path fill-rule="evenodd" clip-rule="evenodd" d="M167.379 499.954C162.768 502.656 170.356 508.449 172.987 509.174C176.958 510.267 184.951 508.226 185.892 503.375C186.267 501.444 185.059 499.695 182.928 500.041C181.174 500.326 180.049 502.527 178.424 503.315C176.23 504.378 174.28 504.306 172.416 502.705C170.898 501.4 170.085 498.376 167.379 499.954Z" fill="#69A1AC"/>
<path fill-rule="evenodd" clip-rule="evenodd" d="M170.722 539.885C166.602 540.764 162.413 540.174 158.273 541.001C154.051 541.843 151.528 543.438 147.606 541.831C147.421 541.753 147.237 541.676 147.053 541.598C144.017 540.29 140.835 539.903 137.658 541.987C135.777 543.22 130.068 547.486 130.756 550.089C132.247 555.732 138.671 546.883 140.309 546.021C143.433 544.376 145.574 546.477 148.79 547.07C152.642 547.78 155.741 545.745 159.37 544.934C163.613 543.986 168.387 543.656 172.705 543.148C174.41 542.948 180.871 544.297 181.454 542.174C182.456 538.528 172.342 539.542 170.722 539.885Z" fill="#C1DEE2"/>
<path fill-rule="evenodd" clip-rule="evenodd" d="M200.449 551.25C200.719 551.454 200.503 551.29 200.449 551.25V551.25ZM211.989 539.665C215.516 539.307 226.802 536.787 229.119 540.432C230.629 542.806 228.233 551.568 225.949 552.702C224.122 553.607 219.869 552.606 217.865 552.535C214.136 552.404 210.4 552.346 206.675 552.113C205.426 552.035 201.407 552.265 200.428 551.159C199.272 549.854 199.323 542.895 199.051 541.169C202.294 542.219 208.598 540.009 211.989 539.665ZM219.521 536.091C215.004 536.287 210.487 536.626 206.003 537.232C203.504 537.57 200.971 538.468 198.663 538.894C197.919 539.031 196.711 538.65 195.799 539.091C193.132 540.379 195.467 549.089 196.11 551.415C197.098 554.99 199.583 555.569 203.066 555.905C207.653 556.35 212.334 556.21 216.936 556.154C221.371 556.099 227.352 557.082 229.841 552.632C231.45 549.754 233.175 543.053 231.8 539.846C229.991 535.626 223.236 535.935 219.521 536.091Z" fill="#C1DEE2"/>
<path fill-rule="evenodd" clip-rule="evenodd" d="M270.11 553.644C269.869 553.954 269.869 553.954 270.11 553.644V553.644ZM271.1 552.45C271.026 552.564 270.679 552.93 271.1 552.45V552.45ZM260.327 552.122C262.318 551.748 264.31 551.377 266.304 551.013C264.416 553.656 262.428 552.564 259.203 552.334C259.578 552.263 259.952 552.193 260.327 552.122ZM250.826 551.187C251.331 551.018 251.835 550.85 252.34 550.681C252.325 551.065 252.407 551.425 252.588 551.76C251.724 551.666 250.86 551.566 249.998 551.46C250.274 551.369 250.55 551.278 250.826 551.187ZM246.423 547.936C246.395 547.243 247.438 547.719 248.035 547.672C246.883 548.686 246.346 548.775 246.423 547.936ZM262.169 540.072C262.32 539.878 262.521 539.888 262.771 540.101C262.498 540.192 261.448 540.638 262.169 540.072ZM272.38 538.871C272.407 538.871 272.973 539.636 272.38 538.871V538.871ZM272.093 538.62C272.242 538.734 272.242 538.734 272.093 538.62V538.62ZM270.819 538.471C272.907 538.824 272.748 541.274 270.819 538.471V538.471ZM246.29 538.304C245.866 538.657 246.011 538.315 246.29 538.304V538.304ZM254.275 533.088C250.73 533.294 244.224 533.087 241.264 534.975C237.401 537.44 239.433 545.926 239.779 549.646C240.29 555.144 242.877 556.71 248.055 557.287C254.235 557.976 260.585 558.104 266.796 557.941C272.391 557.794 275.577 555.87 276.601 549.98C276.915 548.177 277.712 545.389 277.687 543.663C277.67 542.466 277.073 541.92 276.847 540.902C275.562 535.105 273.414 534.417 267.472 534.165C263.099 533.979 258.565 532.863 254.275 533.088Z" fill="#89C5CC"/>
</g>
<g opacity="0.5">
<path fill-rule="evenodd" clip-rule="evenodd" d="M442.032 399.913C451.044 400.105 461.268 405.093 459.843 415.659C458.799 423.399 452.098 429.682 444.336 430.224C435.994 430.806 427.174 424.404 426.041 415.91C424.766 406.357 433.22 399.722 442.032 399.913ZM437.613 395.612C433.959 396.157 430.468 398.076 427.251 399.794C426.023 400.451 419.798 404.452 424.681 405.446C412.916 424.419 440.603 442.043 456.17 429.712C463.161 424.174 466.841 413.675 462.322 405.457C457.649 396.957 446.566 394.267 437.613 395.612Z" fill="#89C5CC"/>
<path fill-rule="evenodd" clip-rule="evenodd" d="M435.459 411.762C435.459 415.306 440.96 415.306 440.96 411.762C440.96 408.218 435.459 408.218 435.459 411.762Z" fill="#89C5CC"/>
<path fill-rule="evenodd" clip-rule="evenodd" d="M445.658 412.329C445.658 416.171 451.621 416.171 451.621 412.329C451.621 408.488 445.658 408.488 445.658 412.329Z" fill="#89C5CC"/>
<path fill-rule="evenodd" clip-rule="evenodd" d="M438.775 419.927C437.973 422.842 447.123 424.337 447.428 420.964C447.573 419.352 439.333 417.894 438.775 419.927Z" fill="#89C5CC"/>
<path fill-rule="evenodd" clip-rule="evenodd" d="M465.6 418.126C476.129 416.862 486.985 417.446 497.565 417.749C500.213 417.826 502.861 417.9 505.509 417.944C507.193 417.972 510.829 418.78 512.298 417.992C518.315 414.765 506.512 413.205 504.84 413.057C494.316 412.191 478.075 411.882 467.52 412.29C464.398 412.412 463.724 418.351 465.6 418.126Z" fill="#89C5CC"/>
<path fill-rule="evenodd" clip-rule="evenodd" d="M512.98 470.469C513.071 459.437 513.466 448.33 514.314 437.33C514.659 432.847 515.074 428.37 515.417 423.886C515.579 421.775 516.329 418.817 515.088 416.964C513.809 415.055 511.003 414.658 509.312 416.35C507.288 418.97 507.876 423.367 507.625 426.537C507.238 431.41 506.77 436.28 506.538 441.164C506.089 450.616 505.983 460.233 506.743 469.673C507.102 474.127 507.879 478.473 508.914 482.817C509.385 484.795 513.133 493.603 512.345 494.818C511.124 496.702 502.099 495.99 500.141 496.042C495.118 496.177 490.092 496.265 485.067 496.361C480.765 496.443 476.463 496.502 472.16 496.54C470.452 496.555 460.414 496.251 462.641 498.784C437.742 500.519 412.366 497.622 387.619 496.629C386.369 496.578 384.323 496.223 382.435 496.121C382.209 495.209 382.023 494.395 381.977 493.828C381.652 489.851 381.567 485.86 381.215 481.884C380.569 474.608 379.318 467.407 378.574 460.144C377.831 452.889 377.906 445.612 377.474 438.339C377.4 437.093 377.224 426.885 374.648 424.404C375.87 424.867 377.839 424.928 378.973 424.836C388.153 424.096 397.267 422.5 406.368 421.131C408.972 420.74 414.881 421.017 417.041 419.716C418.91 418.589 419.65 414.638 416.398 414.958C407.323 415.93 398.296 417.439 389.292 418.924C386.883 419.321 384.481 419.746 382.079 420.18C380.475 420.47 376.241 420.448 374.997 421.415C373.486 422.589 373.326 423.388 373.838 423.919C373.126 423.723 372.273 424.031 371.248 425.056C369.311 427.578 371.132 433.789 371.363 436.746C371.641 440.293 371.777 443.845 371.939 447.399C372.251 454.275 372.97 461.056 374.077 467.85C375.317 475.46 376.371 483.102 377.614 490.71C377.938 492.691 378.359 494.623 378.898 496.537C375.549 498.249 377.826 500.973 380.482 501.456C380.501 501.46 380.521 501.462 380.54 501.466C381.367 503.485 382.525 505.355 383.43 502.65C383.499 502.442 383.531 502.187 383.539 501.9C390.399 502.676 397.938 502.194 404.691 502.47C419.319 503.068 434.037 503.965 448.68 503.51C454.477 503.33 460.291 502.815 466.04 502.042C469.407 501.589 472.788 501.048 476.102 500.297C476.339 500.243 476.7 500.187 477.117 500.118C477.185 500.116 477.254 500.114 477.319 500.114C482.393 500.037 487.463 499.901 492.533 499.69C496.789 499.513 501.064 499.422 505.306 499.021C507.941 498.772 513.51 498.818 515.128 496.168C516.599 493.759 514.139 487.552 513.79 484.846C513.176 480.08 512.941 475.27 512.98 470.469Z" fill="#C1DEE2"/>
<path fill-rule="evenodd" clip-rule="evenodd" d="M461.556 438.614C457.501 438.961 453.752 440.865 449.66 440.889C446.225 440.908 442.844 439.882 439.39 440.034C435.339 440.21 433.11 442.83 429.562 443.707C426.737 444.404 424.957 442.241 422.472 441.285C419.335 440.077 417.017 440.701 414.328 442.528C412.352 443.87 407.744 446.883 407.78 449.599C407.886 457.825 417.483 446.462 419.417 446.324C421.988 446.141 424.86 449.071 427.595 449.238C431.211 449.459 433.529 447.128 436.859 446.279C440.226 445.42 443.866 446.472 447.242 446.799C451.093 447.171 454.464 446.313 458.19 445.394C461.801 444.503 464.878 444.55 468.547 445.298C471.023 445.803 477.193 448.739 478.276 444.964C479.751 439.823 464.39 438.373 461.556 438.614Z" fill="#89C5CC"/>
<path fill-rule="evenodd" clip-rule="evenodd" d="M462.79 454.302C454.482 455.109 446.123 455.816 437.777 456.042C434.162 456.141 420.266 454.591 421.498 459.185C422.555 463.123 441.465 460.643 445.317 460.343C449.569 460.013 453.815 459.551 458.046 459.016C459.545 458.826 463.166 459.022 464.225 457.765C465.233 456.565 464.736 454.108 462.79 454.302Z" fill="#89C5CC"/>
<path fill-rule="evenodd" clip-rule="evenodd" d="M405.476 475.221C405.286 475.301 405.286 475.301 405.476 475.221V475.221ZM407.228 475.197C409.299 475.132 408.855 474.04 410.922 474.609C411.875 474.871 411.972 474.482 412.711 475.393C414.153 477.17 412.795 481.039 411.374 482.471C406.113 487.773 399.799 475.433 407.228 475.197ZM407.228 469.995C392.825 470.479 398.851 492.728 411.387 488.186C416.564 486.311 419.818 477.861 416.773 473.112C415.292 470.802 413.403 470.391 410.922 470.231C410.345 470.194 409.621 471.031 409.261 470.993C408.406 470.903 408.486 469.948 407.228 469.995Z" fill="#89C5CC"/>
<path fill-rule="evenodd" clip-rule="evenodd" d="M441.671 475.983C441.414 475.904 446.219 477.301 445.693 476.754C446.815 477.921 445.307 480.68 444.038 481.161C440.965 482.328 439.24 477.549 441.671 475.983ZM443.803 469.95C439.293 470.589 435.813 472.467 435.196 477.482C434.628 482.111 437.755 486.799 442.689 486.889C453.442 487.086 453.769 468.56 443.803 469.95Z" fill="#89C5CC"/>
<path fill-rule="evenodd" clip-rule="evenodd" d="M492.893 476.186C493.523 484.406 484.999 476.882 492.893 476.186V476.186ZM489.235 467.392C488.49 468.666 489.125 470.018 490.25 470.759C480.196 472.884 482.473 488.013 492.704 485.778C497.907 484.641 498.864 479.17 498.088 474.653C497.719 472.505 492.366 462.038 489.235 467.392Z" fill="#89C5CC"/>
</g>
<path opacity="0.5" fill-rule="evenodd" clip-rule="evenodd" d="M526.836 488.345C523.247 488.966 514.764 492.821 514.838 496.962C514.953 503.425 522.163 496.365 523.767 495.416C532.382 490.315 543.541 496.925 552.512 498.331C556.625 498.975 564.67 500.167 568.304 497.485C574.764 492.717 559.823 493.911 557.92 493.719C547.576 492.68 537.287 486.529 526.836 488.345" fill="#C1DEE2"/>
<g opacity="0.5">
<path fill-rule="evenodd" clip-rule="evenodd" d="M654.586 436.268C654.583 441.946 654.296 447.742 655.343 453.352C655.659 455.051 655.909 458.304 657.701 459.185C659.501 460.07 661.246 459.076 661.693 457.231C662.215 455.085 661.07 451.872 660.955 449.619C660.795 446.54 660.785 443.458 660.783 440.376C660.782 438.15 661.515 434.569 658.887 433.424C656.933 432.572 654.586 434.156 654.586 436.268Z" fill="#C1DEE2"/>
<path fill-rule="evenodd" clip-rule="evenodd" d="M744.353 427.287C725.54 429.176 706.457 429.568 687.576 430.553C678.848 431.008 668.301 430.427 660.078 433.805C658.552 434.433 653.083 437.925 657.523 439.347C658.907 439.79 660.312 438.299 661.448 437.8C663.341 436.969 665.532 436.712 667.55 436.387C684.706 433.632 702.651 434.112 719.984 432.824C724.425 432.494 728.868 432.155 733.3 431.719C736.467 431.407 743.122 429.125 746.044 430.292C751.037 432.287 750.92 445.247 751.019 449.704C751.07 452.009 748.833 460.283 753.28 459.444C756.84 458.773 755.551 450.177 755.274 447.826C754.546 441.662 753.304 426.38 744.353 427.287Z" fill="#C1DEE2"/>
<path fill-rule="evenodd" clip-rule="evenodd" d="M751.291 459.146C734.95 460.621 718.233 459.173 701.824 459.754C693.224 460.058 684.632 460.543 676.03 460.827C672.31 460.95 668.586 460.955 664.864 460.982C663.084 460.994 654.983 462.073 659.994 465.602C662.213 467.165 669.285 465.906 671.831 465.876C675.656 465.831 679.478 465.672 683.3 465.522C692.152 465.176 700.999 464.696 709.856 464.457C718.328 464.227 726.805 464.178 735.277 463.949C739.492 463.834 743.765 463.705 747.943 463.09C748.886 462.951 751.948 462.84 752.603 461.789C753.222 460.795 752.787 459.001 751.291 459.146Z" fill="#89C5CC"/>
<path fill-rule="evenodd" clip-rule="evenodd" d="M670.978 446.877C670.89 447.085 670.89 447.085 670.978 446.877V446.877ZM678.055 444.726C678.313 444.835 678.313 444.835 678.055 444.726V444.726ZM677.723 444.666C681.537 448.553 675.672 453.193 672.1 449.4C668.308 445.373 675.268 444.679 677.723 444.666ZM673.679 438.786C660.543 441.123 665.194 458.629 677.462 456.099C682.848 454.989 685.928 449.563 684.075 444.351C683.35 442.314 681.772 440.079 679.573 439.438C678.477 439.118 677.507 439.621 676.463 439.503C675.467 439.391 674.915 438.563 673.679 438.786Z" fill="#C1DEE2"/>
<path fill-rule="evenodd" clip-rule="evenodd" d="M723.95 443.713C716.029 443.738 708.107 444.074 700.187 444.225C697.758 444.27 691.514 443.183 691.504 447.013C691.494 451.105 698.449 449.594 700.763 449.539C708.619 449.351 716.495 449.007 724.319 448.259C726.295 448.07 733.138 448.396 733.131 445.708C733.123 442.86 725.546 443.713 723.95 443.713Z" fill="#C1DEE2"/>
<path fill-rule="evenodd" clip-rule="evenodd" d="M742.869 470.421C723.278 470.947 703.718 471.13 684.143 472.133C676.822 472.508 669.51 472.787 662.178 472.787C660.765 472.787 657.922 472.24 656.593 473.129C652.986 475.541 657.093 477.612 659.444 477.742C675.524 478.634 691.838 476.413 707.909 475.912C717.317 475.619 726.728 475.532 736.131 475.053C738.696 474.923 741.262 474.771 743.823 474.572C745.296 474.458 749.191 474.771 750.381 473.909C755.578 470.147 744.621 470.374 742.869 470.421Z" fill="#89C5CC"/>
<path fill-rule="evenodd" clip-rule="evenodd" d="M652.986 480C652.801 485.079 652.782 490.07 653.447 495.121C653.708 497.108 653.828 499.364 656.158 499.869C658.274 500.327 659.347 498.727 659.785 496.953C660.855 492.62 659.914 486.384 659.901 481.883C659.895 479.657 659.893 477.166 657.143 476.663C655.045 476.279 653.066 477.795 652.986 480Z" fill="#89C5CC"/>
<path fill-rule="evenodd" clip-rule="evenodd" d="M763.633 492.245C731.922 493.916 700.252 495.375 668.517 496.716C666.042 496.821 646.816 496.611 653.538 503.316C655.614 505.387 660.963 503.984 663.647 503.853C667.682 503.654 671.719 503.503 675.753 503.298C691.75 502.483 707.788 502.264 723.773 501.35C732.57 500.847 741.346 500.06 750.097 499.036C754.259 498.549 759.426 498.599 763.324 496.968C765.329 496.129 767.494 492.04 763.633 492.245Z" fill="#89C5CC"/>
<path fill-rule="evenodd" clip-rule="evenodd" d="M745.4 466.48C742.988 468.882 744.228 473.62 744.41 476.589C744.66 480.674 744.964 484.762 745.474 488.825C745.806 491.464 745.63 495.571 747.038 497.851C748.687 500.521 752.317 500.225 753.808 497.646C755.127 495.365 754.459 490.566 754.425 488.038C754.378 484.542 754.16 481.041 753.953 477.552C753.779 474.637 754.44 469.964 752.836 467.469C751.206 464.933 747.66 464.232 745.4 466.48Z" fill="#89C5CC"/>
<path fill-rule="evenodd" clip-rule="evenodd" d="M672.917 485.119C672.634 485.337 672.634 485.337 672.917 485.119V485.119ZM678.549 484.413C683.805 485.47 675.307 491.606 672.621 487.395C672.202 486.737 671.983 485.928 672.657 485.356C673.271 484.834 673.657 485.758 674.238 485.51C675.238 485.082 677.482 484.373 678.549 484.413ZM677.824 479.375C674.236 479.659 669.303 479.881 667.527 483.478C665.141 488.309 669.221 493.04 673.942 493.775C678.485 494.483 685.267 491.967 685.631 486.669C685.924 482.397 681.861 479.048 677.824 479.375Z" fill="#89C5CC"/>
<path fill-rule="evenodd" clip-rule="evenodd" d="M707.781 481.93C704.066 481.99 696.765 480.892 693.529 482.702C690.327 484.494 691.755 487.684 694.676 488.447C696.607 488.951 699.763 488.138 701.773 488.056C704.418 487.948 707.064 487.925 709.71 487.888C714.161 487.828 718.609 487.879 723.06 487.879C727.605 487.879 732.228 488.003 736.766 487.669C742.508 487.246 742.353 482.947 736.738 482.41C727.199 481.497 717.35 481.78 707.781 481.93Z" fill="#89C5CC"/>
<path fill-rule="evenodd" clip-rule="evenodd" d="M698.292 530.08C698.292 532.122 700.105 530.08 700.092 530.08C700.105 530.08 698.292 528.037 698.292 530.08Z" fill="#89C5CC"/>
<path fill-rule="evenodd" clip-rule="evenodd" d="M657.297 513.637C657.414 519.574 657.49 525.517 657.744 531.45C657.824 533.326 657.287 536.989 659.561 537.945C662.092 539.01 662.879 536.356 663.17 534.558C664.094 528.862 663.189 522.358 663.1 516.594C663.07 514.659 663.489 511.965 661.291 511C659.498 510.212 657.261 511.674 657.297 513.637Z" fill="#89C5CC"/>
<path fill-rule="evenodd" clip-rule="evenodd" d="M754.935 513.73C755.085 514.084 755.085 514.084 754.935 513.73V513.73ZM755.147 513.669C755.268 513.72 755.76 513.927 755.147 513.669V513.669ZM707.183 508.871C698.068 509.014 688.948 509.122 679.839 509.512C675.951 509.679 672.019 509.813 668.145 510.18C665.401 510.439 658.584 510.547 656.804 512.79C653.132 517.418 660.92 516.156 662.598 515.78C665.65 515.096 668.767 514.877 671.886 514.712C678.653 514.355 685.423 514.164 692.199 514.028C710.573 513.658 728.961 513.714 747.34 513.631C749.119 513.624 752.335 512.908 753.978 513.628C755.624 514.349 755.531 516.123 755.702 518.182C755.93 520.922 754.123 526.143 755.5 528.448C757.636 532.023 760.742 528.987 761.217 526.381C761.872 522.78 760.833 518.456 759.815 515.013C758.379 510.157 756.385 509.964 751.687 509.584C746.199 509.141 740.73 508.872 735.224 508.821C725.879 508.735 716.527 508.726 707.183 508.871Z" fill="#89C5CC"/>
<path fill-rule="evenodd" clip-rule="evenodd" d="M743.233 533.414C723.464 535.71 703.132 534.357 683.257 534.438C678.424 534.458 673.586 534.497 668.758 534.731C666.208 534.854 660.162 534.151 658.415 536.119C654.732 540.266 661.366 540.869 663.788 540.698C668.685 540.349 673.594 540.191 678.503 540.153C695.796 540.019 713.186 540.826 730.465 539.973C737.704 539.615 744.781 538.377 751.886 536.993C753.46 536.687 764.235 534.638 758.091 532.183C754.459 530.732 747.048 532.969 743.233 533.414Z" fill="#89C5CC"/>
<path fill-rule="evenodd" clip-rule="evenodd" d="M685.512 525.822C685.374 525.999 685.374 525.999 685.512 525.822V525.822ZM685.379 525.791C685.332 525.918 685.187 526.232 685.379 525.791V525.791ZM684.132 524.183C684.161 524.22 684.279 524.371 684.132 524.183V524.183ZM684.084 524.171C684.56 524.739 684.881 525.373 685.046 526.072C680.95 527.182 679.371 523.868 684.084 524.171ZM683.825 524.016C683.827 524.017 684.403 524.259 683.825 524.016V524.016ZM677.097 519.079C674.446 522.38 672.257 526.227 675.562 529.998C678.518 533.37 684.463 533.805 688.214 531.554C692.077 529.235 691.743 524.352 689.048 521.165C687.313 519.113 685.907 519.17 683.389 518.835C681.675 518.607 678.551 517.274 677.097 519.079Z" fill="#89C5CC"/>
<path fill-rule="evenodd" clip-rule="evenodd" d="M704.5 525.189C704.5 529.585 723.481 527.693 726.858 527.688C729.687 527.684 746.79 529.244 745.563 524.72C744.554 521.003 727.707 522.851 724.119 522.845C721.017 522.841 704.5 520.712 704.5 525.189Z" fill="#89C5CC"/>
</g>
<g opacity="0.5">
<path fill-rule="evenodd" clip-rule="evenodd" d="M456.7 566.376C466.206 567.756 476.094 572.227 476.011 583.292C475.941 592.595 468.139 602.496 458.119 601.94C449.103 601.441 440.612 591.58 439.483 583.13C438.898 578.752 439.993 574.039 442.568 570.437C445.942 565.719 451.296 565.726 456.7 566.376ZM452.21 560.362C445.334 560.399 440.304 562.886 436.049 568.136C434.523 570.018 432.748 572.044 431.586 574.177C430.501 576.169 430.691 581.234 434.415 578.859C433.498 588.665 439.229 598.182 447.467 603.207C456.422 608.669 466.544 607.604 473.997 599.948C480.819 592.94 483.22 581.103 478.229 572.436C473.241 563.774 461.683 560.269 452.21 560.362Z" fill="#89C5CC"/>
<path fill-rule="evenodd" clip-rule="evenodd" d="M472.826 557.734C468.424 560.96 464.405 565.208 461.067 569.517C457.804 573.728 455.647 578.987 451.727 582.66C449.748 580.504 447.429 574.681 443.48 576.991C440.203 578.908 442.313 582.205 443.909 584.369C448.03 589.958 452.606 592.208 457.891 586.685C462.691 581.67 465.417 574.98 469.905 569.677C471.873 567.349 474.915 565.04 476.482 562.47C477.903 560.142 476.146 555.294 472.826 557.734Z" fill="#89C5CC"/>
</g>
<g opacity="0.5">
<path fill-rule="evenodd" clip-rule="evenodd" d="M639.175 207.878C639.182 208.318 639.188 208.731 639.197 209.112C639.403 217.416 639.284 226.146 638.609 234.431C638.376 237.292 636.295 240.917 633.921 236.974C632.877 235.24 633.024 231.68 633.131 229.061C633.16 228.358 633.186 227.724 633.186 227.21C633.184 224.288 633.337 221.336 633.491 218.375C633.792 212.588 634.095 206.77 633.238 201.086C633.221 200.971 633.204 200.861 633.189 200.754C632.816 198.255 632.791 198.082 630.042 198.139C628.896 198.163 627.75 198.194 626.605 198.225C625.478 198.255 624.351 198.286 623.224 198.309C622.104 198.333 620.985 198.354 619.866 198.376C616.356 198.443 612.846 198.511 609.337 198.639C608.752 198.661 607.659 198.798 606.281 198.971C603.524 199.316 599.624 199.806 596.342 199.803C596.343 199.817 596.344 199.831 596.345 199.845C596.347 199.871 596.349 199.896 596.349 199.922C596.386 201.734 595.919 203.756 595.45 205.788C595.058 207.49 594.664 209.199 594.563 210.795C594.322 214.594 594.319 218.433 594.317 222.273C594.313 226.948 594.31 231.623 593.877 236.225C593.856 236.45 593.843 236.687 593.83 236.927C593.829 236.959 593.827 236.991 593.825 237.023C593.974 237 594.118 236.984 594.257 236.975C596.623 236.825 599.008 236.812 601.39 236.798C602.704 236.791 604.016 236.784 605.323 236.753C607.671 236.699 610.048 236.702 612.434 236.704C617.701 236.71 623.015 236.716 628.167 236.109C629.689 235.912 630.221 237.863 629.538 238.875C628.927 239.781 627.244 239.928 626.012 240.035C625.699 240.063 625.415 240.087 625.185 240.121C621.862 240.613 618.495 240.785 615.142 240.934C611.621 241.09 608.096 241.206 604.573 241.304C603.734 241.328 602.615 241.441 601.374 241.566C598.097 241.897 593.972 242.314 591.925 241.388C589.724 240.392 589.776 239.287 590.674 238.431C590.28 237.564 590.218 236.299 590.169 235.309C590.151 234.931 590.134 234.593 590.102 234.333C589.614 230.392 589.319 226.501 589.312 222.526C589.298 214.74 589.314 206.653 591.468 199.116C590.605 198.738 590.085 198.181 590.087 197.379C590.097 193.335 602.682 193.541 608.665 193.639C609.735 193.656 610.593 193.67 611.131 193.656C615.489 193.542 619.848 193.527 624.207 193.551C625.128 193.556 626.153 193.495 627.215 193.433C629.474 193.3 631.901 193.158 633.852 193.611C638.978 194.801 639.101 202.965 639.175 207.878Z" fill="#89C5CC"/>
<path fill-rule="evenodd" clip-rule="evenodd" d="M671.235 194.497C675.993 194.245 680.756 194.188 685.521 194.17C690.566 194.145 695.618 194.235 700.661 194.39L700.778 194.394C703.012 194.461 715.432 194.834 709.726 197.929C709.393 198.11 709.019 198.26 708.61 198.386C708.852 199.819 708.881 201.298 708.842 202.011C708.695 204.714 708.598 207.421 708.5 210.127C708.435 211.961 708.369 213.795 708.287 215.628C708.063 220.692 707.849 225.757 707.674 230.824C707.653 231.446 707.686 232.259 707.723 233.166C707.844 236.163 708.006 240.18 706.379 241.665C704.95 242.968 703.974 242.707 703.316 241.821C699.228 243.009 690.832 242.623 686.61 242.429C685.593 242.382 684.818 242.346 684.404 242.346C683.664 242.347 682.289 242.439 680.552 242.556C673.323 243.041 659.829 243.948 659.801 240.384C659.799 240.041 659.91 239.734 660.12 239.458C659.547 238.874 659.032 238.016 658.701 236.945C657.513 233.101 657.401 228.954 657.313 224.968C657.188 219.34 657.187 213.705 657.185 208.072C657.185 205.178 657.184 202.285 657.167 199.394C656.394 198.356 656.853 197.169 657.817 196.341C659.87 194.579 664.965 194.558 668.652 194.542C669.644 194.538 670.533 194.534 671.235 194.497ZM663.491 237.895C668.078 236.916 675.807 237.231 679.947 237.4C681.032 237.444 681.87 237.478 682.341 237.476C686.571 237.46 690.801 237.519 695.027 237.688C695.465 237.705 696.113 237.689 696.877 237.669C698.411 237.631 700.412 237.58 702.111 237.769C702.088 237.538 702.072 237.328 702.063 237.146C701.873 233.384 702.01 229.59 702.147 225.817V225.817C702.176 225.015 702.205 224.214 702.231 223.415C702.322 220.594 702.442 217.774 702.563 214.955L702.563 214.955L702.563 214.953C702.638 213.178 702.714 211.403 702.783 209.628C702.813 208.849 702.768 207.79 702.718 206.6V206.6C702.615 204.178 702.49 201.208 702.924 198.926C701.359 198.897 699.756 198.786 698.285 198.684C696.868 198.586 695.575 198.497 694.558 198.496C693.268 198.496 691.978 198.492 690.689 198.488H690.689H690.689H690.688C687.115 198.477 683.543 198.466 679.969 198.537C679.63 198.544 679.291 198.55 678.952 198.557L678.952 198.557L678.952 198.557C674.031 198.652 669.07 198.748 664.191 199.396C663.905 199.434 663.561 199.507 663.181 199.596C663.716 201.832 663.454 204.983 663.224 207.742C663.113 209.082 663.009 210.33 663.008 211.336C663.001 217.592 663.166 223.823 663.331 230.048L663.331 230.049L663.331 230.049C663.394 232.404 663.456 234.757 663.509 237.111C663.515 237.392 663.509 237.653 663.491 237.895Z" fill="#89C5CC"/>
<path fill-rule="evenodd" clip-rule="evenodd" d="M611.284 241.123C608.157 242.95 609.843 250.259 610.927 252.786C612.708 256.943 616.322 260.195 620.222 262.352C628.104 266.712 639.466 265.554 645.427 273.114C645.489 273.192 647.549 275.232 648.018 272.59C648.403 270.422 644.557 267.111 643.066 266.025C638.827 262.934 633.391 261.938 628.488 260.394C623.259 258.748 617.521 255.713 615.328 250.322C614.552 248.413 616.032 238.337 611.284 241.123Z" fill="#C1DEE2"/>
<path fill-rule="evenodd" clip-rule="evenodd" d="M682.779 244.637C679.913 245.427 681.809 249.371 681.804 251.345C681.799 253.809 681.011 256.387 679.493 258.353C675.643 263.338 668.104 264.085 662.452 265.515C658.348 266.553 648.529 268.78 648.145 274.331C647.716 280.529 656.384 272.986 657.117 272.677C665.219 269.705 675.701 269.131 681.955 262.589C684.536 259.888 686.062 256.284 686.305 252.564C686.441 250.469 686.465 243.63 682.779 244.637Z" fill="#C1DEE2"/>
<path fill-rule="evenodd" clip-rule="evenodd" d="M623.561 299.616C623.494 288.148 634.469 281.211 644.393 278.601C656.322 275.458 667.433 283.817 668.84 295.84C670.324 308.529 660.76 318.744 648.148 319.304C637.054 319.796 623.632 311.853 623.561 299.616ZM650.207 284.115C650.852 284.992 651.434 286.392 650.134 287.154C648.884 287.883 648.26 287.007 647.631 286.125C647.234 285.568 646.835 285.009 646.276 284.851C644.826 284.443 642.495 285.968 641.288 286.857C640.797 287.218 640.1 287.995 639.284 288.904C636.688 291.795 632.897 296.017 630.802 292.384C622.446 306.813 643.278 317.612 655.124 312.151C668.134 306.154 665.602 284.229 650.207 284.115Z" fill="#89C5CC"/>
<path fill-rule="evenodd" clip-rule="evenodd" d="M639.289 295.777C639.289 298.409 643.446 298.409 643.446 295.777C643.446 293.174 639.289 293.063 639.289 295.777Z" fill="#89C5CC"/>
<path fill-rule="evenodd" clip-rule="evenodd" d="M646.603 295.283C646.603 298.507 651.697 298.507 651.697 295.283C651.697 292.095 646.603 291.959 646.603 295.283Z" fill="#89C5CC"/>
<path fill-rule="evenodd" clip-rule="evenodd" d="M641.369 302.796C637.203 305.247 649.117 310.116 649.587 305.14C649.79 302.993 647.711 303.572 646.325 303.415C644.999 303.263 642.627 302.064 641.369 302.796Z" fill="#89C5CC"/>
<path fill-rule="evenodd" clip-rule="evenodd" d="M639.562 320.181C639.743 326.44 639.656 332.696 640.843 338.867C641.068 340.039 641.225 344.291 642.152 345.162C644.43 347.304 644.468 343.199 644.557 341.625C644.873 335.99 644.281 330.179 644.151 324.532C644.122 323.316 644.444 320.799 643.871 319.622C642.96 317.755 639.473 317.2 639.562 320.181Z" fill="#C1DEE2"/>
<path fill-rule="evenodd" clip-rule="evenodd" d="M635.106 315.106C625.973 325.357 613.396 324.602 600.726 325.5C594.031 325.974 587.262 326.948 581.876 331.278C579.37 333.293 577.21 335.816 575.758 338.691C575.124 339.948 572.114 347.201 576.634 345.481C578.237 344.87 579.815 340.074 580.852 338.655C582.827 335.953 585.354 333.722 588.385 332.272C594.232 329.475 601.214 329.523 607.554 329.168C614.181 328.797 621.294 328.45 627.386 325.568C630.252 324.212 632.94 322.522 635.246 320.343C636.071 319.564 637.838 318.241 637.969 317.05C638.12 315.689 636.812 313.197 635.106 315.106Z" fill="#C1DEE2"/>
<path fill-rule="evenodd" clip-rule="evenodd" d="M589 346.569C580.421 346.856 571.852 347.203 563.285 347.746C561.53 347.857 555.676 347.502 557.167 351.1C558.362 353.983 565.501 352.076 567.862 351.936C576.789 351.406 585.753 351.222 594.662 350.419C596.663 350.239 605.709 350.31 601.973 346.764C600.196 345.076 591.455 346.486 589 346.569Z" fill="#89C5CC"/>
<path fill-rule="evenodd" clip-rule="evenodd" d="M551.719 350.707C549.015 354.259 550.258 362.891 550.462 367.161C550.66 371.298 549.856 378.863 555.257 379.505C553.542 379.28 556.559 379.609 557.05 379.635C558.146 379.694 559.248 379.713 560.346 379.725C562.883 379.753 565.421 379.719 567.957 379.668C573.702 379.554 579.462 379.386 585.2 379.069C587.612 378.935 600.696 379.047 601.214 376.541C601.876 373.339 589.331 375.151 587.085 375.253C581.616 375.504 576.138 375.557 570.664 375.628C567.951 375.664 565.235 375.691 562.522 375.638C561.401 375.616 556.965 376.076 556.284 375.328C555.703 374.692 556.156 368.842 556.144 367.947C556.104 365.03 556.107 362.107 556.211 359.191C556.281 357.228 557.342 353.493 556.477 351.649C555.636 349.856 553.185 349.244 551.719 350.707Z" fill="#89C5CC"/>
<path fill-rule="evenodd" clip-rule="evenodd" d="M595.895 350.873C596.051 357.371 596.1 363.999 597.635 370.354C598.145 372.468 598.861 376.829 600.985 377.924C603.215 379.073 605.14 377.433 605.286 375.223C605.469 372.446 603.982 368.799 603.677 365.949C603.321 362.624 603.114 359.296 602.992 355.954C602.9 353.441 603.663 349.673 601.268 348.053C599.116 346.597 595.825 348.063 595.895 350.873Z" fill="#89C5CC"/>
<path fill-rule="evenodd" clip-rule="evenodd" d="M612.968 349.287C610.3 351.945 611.492 360.36 611.826 363.775C612.07 366.276 614.808 378.581 618.91 372.164C620.724 369.326 618.419 361.821 618.435 358.511C618.446 356.403 619.192 353.738 618.832 351.713C618.356 349.037 615.388 346.87 612.968 349.287Z" fill="#89C5CC"/>
<path fill-rule="evenodd" clip-rule="evenodd" d="M631.443 347.093C639.457 346.266 647.481 345.646 655.539 345.569C655.926 345.566 656.333 345.561 656.756 345.556C662.279 345.486 670.579 345.38 674.296 349.528C676.321 351.787 677.238 355.28 678.038 358.325C678.187 358.892 678.332 359.445 678.479 359.971C678.605 360.42 678.769 360.932 678.946 361.486C679.781 364.1 680.91 367.637 679.765 369.826C679.137 371.027 678.126 372.051 676.591 371.626C676.233 371.526 675.952 371.399 675.731 371.249C676.319 371.885 676.58 372.792 676.198 373.678C675.46 375.392 673.128 375.429 671.291 375.457C670.846 375.464 670.429 375.471 670.072 375.501C663.953 376.011 657.806 376.351 651.665 376.405C648.742 376.43 645.818 376.406 642.894 376.383C639.884 376.358 636.875 376.333 633.865 376.363C631.681 376.384 629.456 376.592 627.231 376.8C624.421 377.062 621.611 377.324 618.878 377.212C616.834 377.128 614.651 376.459 615.169 373.817C615.592 371.66 617.622 371.472 619.441 371.303C619.599 371.289 619.756 371.274 619.91 371.258C625.702 370.669 631.498 370.46 637.32 370.481C649.551 370.523 661.772 370.46 674.003 370.396C674.506 370.438 674.979 370.63 675.369 370.922C674.929 370.388 674.937 369.676 674.946 368.919C674.951 368.576 674.955 368.223 674.918 367.874C674.843 367.171 674.774 366.471 674.706 365.772C674.48 363.463 674.255 361.171 673.815 358.849C673.748 358.498 673.684 358.112 673.617 357.704C673.216 355.293 672.686 352.098 670.769 350.796C668.841 349.487 665.061 349.55 662.115 349.599C661.319 349.612 660.585 349.624 659.964 349.608C652.103 349.405 644.196 349.964 636.371 350.675C635.77 350.73 635.168 350.782 634.565 350.835C631.588 351.094 628.595 351.355 625.661 351.887C625.124 351.985 624.304 352.271 623.363 352.6C620.859 353.473 617.503 354.644 616.362 353.354C612.584 349.081 629.188 347.326 631.443 347.093Z" fill="#89C5CC"/>
<path fill-rule="evenodd" clip-rule="evenodd" d="M716.707 337.363C717.056 337.811 717.056 337.811 716.707 337.363V337.363ZM662.473 310.887C657.605 313.748 666.614 322.143 668.909 323.441C674.073 326.363 681.17 326.804 686.936 327.625C694.234 328.666 702.176 329.049 709.19 331.44C712.179 332.459 714.077 334.049 716.034 336.493C717.026 337.732 719.413 343.069 721.587 341.805C725.965 339.261 714.169 328.583 711.57 327.435C705.662 324.825 698.678 324.094 692.361 323.081C686.487 322.138 680.486 321.437 674.757 319.775C671.607 318.862 669.368 317.388 667.552 314.567C666.42 312.809 665.492 309.121 662.473 310.887Z" fill="#C1DEE2"/>
<path fill-rule="evenodd" clip-rule="evenodd" d="M737.091 343.681C731.479 343.806 725.878 344.238 720.278 344.669C717.136 344.911 713.995 345.153 710.853 345.341C709.87 345.4 708.886 345.453 707.902 345.506L707.902 345.506L707.902 345.506C705.133 345.655 702.361 345.804 699.606 346.083C699.188 346.125 698.703 346.165 698.174 346.208C695.834 346.4 692.644 346.662 690.605 347.516C688.736 346.102 685.851 347.304 685.806 349.824C685.729 354.414 685.771 358.923 686.331 363.485C686.461 364.544 687.13 369.905 688.586 372.696C688.068 375.332 690.315 376.07 692.406 376.272C700.506 377.054 708.999 376.447 717.378 375.849C721.639 375.544 725.871 375.242 730.006 375.125C731.381 375.086 732.774 375.071 734.175 375.055C738.747 375.004 743.407 374.952 747.833 374.087C748.011 374.052 748.202 374.018 748.402 373.982C750.152 373.669 752.565 373.236 752.749 371.31C752.859 370.154 752.207 369.096 751.116 368.947C751.191 367.984 751.07 366.933 750.981 366.161L750.981 366.161C750.96 365.981 750.941 365.816 750.927 365.671C750.661 362.993 749.994 360.332 749.335 357.705L749.335 357.705L749.335 357.705C749.187 357.114 749.04 356.525 748.897 355.939C748.739 355.289 748.593 354.515 748.435 353.682C747.879 350.739 747.179 347.042 745.32 345.325C743.369 343.525 740.194 343.604 737.65 343.668C737.46 343.673 737.273 343.678 737.091 343.681ZM746.966 369.235C746.301 367.493 746.106 365.138 745.921 362.899V362.899C745.805 361.494 745.692 360.134 745.47 359.001C745.302 358.151 745.165 357.255 745.026 356.344L745.026 356.344C744.688 354.131 744.337 351.832 743.506 349.893C742.394 347.296 741.404 347.395 739.062 347.63C738.627 347.674 738.144 347.722 737.606 347.759C735.219 347.921 732.834 348.127 730.45 348.334L730.45 348.334C729.306 348.433 728.162 348.532 727.018 348.626C722.122 349.028 717.223 349.338 712.324 349.647L712.324 349.647C709.462 349.828 706.599 350.008 703.737 350.208C701.491 350.364 699.298 350.791 697.115 351.216C695.386 351.553 693.662 351.889 691.922 352.088C691.897 352.683 691.847 353.28 691.799 353.849C691.734 354.624 691.674 355.346 691.687 355.937C691.744 358.559 691.975 361.164 692.207 363.774C692.243 364.175 692.278 364.576 692.313 364.978C692.355 365.459 692.459 366.077 692.574 366.763C692.751 367.824 692.956 369.046 693.001 370.171C693.213 370.17 693.424 370.171 693.631 370.171C693.899 370.172 694.162 370.173 694.415 370.169C700.583 370.061 706.747 369.874 712.912 369.637C713.699 369.607 714.486 369.576 715.273 369.546C720.773 369.332 726.273 369.117 731.778 369.054C733.965 369.029 736.18 369.098 738.403 369.167C741.262 369.255 744.132 369.344 746.966 369.235Z" fill="#89C5CC"/>
</g>
<path fill-rule="evenodd" clip-rule="evenodd" d="M90.5105 236C119.461 236 142.929 212.271 142.929 183C142.929 153.729 119.461 130 90.5105 130C61.5605 130 38.0918 153.729 38.0918 183C38.0918 212.271 61.5605 236 90.5105 236Z" fill="#F2F2F2"/>
<path fill-rule="evenodd" clip-rule="evenodd" d="M90.5106 144C92.1492 144 93.4777 142.657 93.4777 141C93.4777 139.343 92.1492 138 90.5106 138C88.8719 138 87.5435 139.343 87.5435 141C87.5435 142.657 88.8719 144 90.5106 144Z" fill="black" fill-opacity="0.1"/>
<path fill-rule="evenodd" clip-rule="evenodd" d="M48.971 186C50.6097 186 51.9381 184.657 51.9381 183C51.9381 181.343 50.6097 180 48.971 180C47.3323 180 46.0039 181.343 46.0039 183C46.0039 184.657 47.3323 186 48.971 186Z" fill="black" fill-opacity="0.1"/>
<path fill-rule="evenodd" clip-rule="evenodd" d="M132.05 186C133.688 186 135.017 184.657 135.017 183C135.017 181.343 133.688 180 132.05 180C130.411 180 129.083 181.343 129.083 183C129.083 184.657 130.411 186 132.05 186Z" fill="black" fill-opacity="0.1"/>
<path fill-rule="evenodd" clip-rule="evenodd" d="M90.5106 228C92.1492 228 93.4777 226.657 93.4777 225C93.4777 223.343 92.1492 222 90.5106 222C88.8719 222 87.5435 223.343 87.5435 225C87.5435 226.657 88.8719 228 90.5106 228Z" fill="black" fill-opacity="0.1"/>
<path fill-rule="evenodd" clip-rule="evenodd" d="M90.5103 147L92.4884 182H88.5322L90.5103 147Z" fill="#AFB9C5"/>
<path fill-rule="evenodd" clip-rule="evenodd" d="M108.015 200.699L89.8317 185.142L92.6291 182.314L108.015 200.699Z" fill="#AFB9C5"/>
<path fill-rule="evenodd" clip-rule="evenodd" d="M90.5103 187C92.6952 187 94.4665 185.209 94.4665 183C94.4665 180.791 92.6952 179 90.5103 179C88.3254 179 86.5542 180.791 86.5542 183C86.5542 185.209 88.3254 187 90.5103 187Z" fill="#C5CFD6"/>
<path fill-rule="evenodd" clip-rule="evenodd" d="M100.502 468.173C103.335 467.823 106.359 467.947 108.994 469.077C114.596 471.482 116.189 478.174 116.112 483.614C116.029 489.468 114.8 495.863 119.202 500.58C121.226 502.748 123.743 504.408 125.73 506.617C127.853 508.977 129.519 511.677 130.753 514.577C133.018 519.903 134.129 526.167 132.058 531.754C130.234 536.674 125.646 541.114 126.638 546.708C127.672 552.543 133.491 557.004 137.129 561.351C141.246 566.269 145.036 572.556 145.659 579.006C146.256 585.188 143.595 591.44 139.51 596.113C131.35 605.451 119.083 610.028 106.715 610C101.464 609.988 95.518 609.748 90.9863 606.895C89.5857 606.013 88.8468 605.023 88.0142 603.648C87.2676 602.414 86.2815 601.612 85.14 600.739C82.6322 598.822 80.8212 596.239 79.6654 593.347C75.1773 582.114 78.7644 568.218 85.0468 558.243C86.5354 555.88 87.7542 553.605 87.031 550.789C86.2764 547.848 84.4215 545.196 82.781 542.669C81.1598 540.17 79.3091 537.787 78.042 535.087C76.715 532.257 76.3413 529.294 76.5758 526.198C77.0164 520.381 79.4998 515.013 83.0158 510.336C86.4023 505.83 90.3786 501.518 90.3875 495.615C90.3973 489.357 86.2599 483.791 88.0225 477.429C88.7523 474.795 90.2182 472.092 92.5806 470.513C94.8462 468.998 97.8376 468.502 100.502 468.173Z" fill="#DDE3E9"/>
<path fill-rule="evenodd" clip-rule="evenodd" d="M98.6512 478.176C98.7044 477.336 99.6903 476.832 100.466 477.051C101.488 477.34 101.468 478.305 101.441 479.165C101.359 481.808 101.737 484.377 102.366 486.942C103.672 492.274 106.085 497.186 107.998 502.308C109.908 507.425 110.805 512.709 109.684 518.124C108.628 523.23 106.968 528.203 105.886 533.315C104.933 537.821 103.919 542.573 105.37 547.067C106.767 551.393 109.855 554.916 112.079 558.825C116.682 566.918 118.724 575.896 118.997 585.135C119.123 589.425 119.009 593.755 118.025 597.963C117.459 600.386 116.697 603.66 114.644 605.333C113.697 606.105 112.077 606.371 111.28 605.229C110.532 604.158 111.188 602.499 111.426 601.357C112.455 596.413 112.662 591.361 112.415 586.342C112.177 581.48 111.609 576.626 110.095 571.982C108.691 567.673 106.557 563.802 104.045 560.032C101.486 556.191 98.8252 552.341 97.7677 547.789C96.6933 543.166 97.5661 538.462 98.7333 533.927C99.9676 529.131 101.584 524.472 103.256 519.805C104.885 515.258 105.462 510.955 104.563 506.196C102.786 496.794 98.0317 487.968 98.6512 478.176Z" fill="#C5CFD6"/>
<path fill-rule="evenodd" clip-rule="evenodd" d="M175.307 479.582C178.813 480.659 182.295 482.395 184.794 485.118C190.109 490.909 188.478 499.661 185.544 506.053C182.387 512.933 177.602 519.849 180.299 527.743C181.539 531.372 183.624 534.659 184.8 538.316C186.056 542.224 186.599 546.294 186.53 550.372C186.402 557.862 184.431 565.855 179.081 571.373C174.37 576.232 166.668 579.07 164.907 586.206C163.069 593.651 167.562 601.988 169.556 609.041C171.814 617.024 172.974 626.453 170.332 634.409C167.801 642.034 161.411 648.028 154.177 651.406C139.725 658.156 122.944 657.117 108.452 650.578C102.299 647.801 95.4509 644.391 91.6272 638.633C90.4455 636.853 90.0961 635.294 89.8385 633.23C89.6077 631.378 88.8704 629.911 87.9878 628.278C86.0486 624.692 85.2749 620.684 85.4312 616.656C86.0391 601.011 97.5111 586.464 110.094 577.972C113.076 575.96 115.694 573.912 116.318 570.2C116.97 566.325 116.181 562.213 115.578 558.361C114.983 554.554 114.058 550.763 113.984 546.902C113.906 542.858 115.017 539.157 116.911 535.619C120.468 528.972 126.187 523.93 132.756 520.247C139.084 516.7 146.001 513.692 149.098 506.715C152.381 499.32 150.438 490.561 155.831 483.964C158.064 481.233 161.196 478.807 164.793 478.182C168.242 477.583 172.01 478.57 175.307 479.582Z" fill="#DDE3E9"/>
<path fill-rule="evenodd" clip-rule="evenodd" d="M168.146 491.811C168.643 490.844 170.057 490.769 170.851 491.44C171.896 492.324 171.373 493.456 170.896 494.46C169.431 497.547 168.542 500.789 167.949 504.159C166.714 511.166 166.992 518.262 166.575 525.341C166.158 532.414 164.47 539.147 160.355 544.965C156.474 550.452 151.957 555.462 148.045 560.943C144.596 565.773 140.949 570.863 140.319 576.954C139.711 582.817 141.497 588.626 142.072 594.434C143.262 606.457 141 618.171 136.533 629.257C134.459 634.405 132.083 639.472 128.753 643.933C126.835 646.503 124.249 649.977 120.981 650.869C119.474 651.281 117.442 650.739 117.102 648.964C116.782 647.298 118.409 645.682 119.278 644.455C123.042 639.146 125.901 633.273 128.213 627.198C130.452 621.314 132.302 615.265 132.938 608.963C133.528 603.116 133.037 597.401 132.053 591.606C131.05 585.701 129.933 579.732 131.055 573.781C132.193 567.736 135.65 562.628 139.364 557.876C143.292 552.85 147.595 548.19 151.967 543.549C156.227 539.027 159.131 534.238 160.544 528.126C163.338 516.049 162.35 503.078 168.146 491.811Z" fill="#C5CFD6"/>
<path fill-rule="evenodd" clip-rule="evenodd" d="M66.9227 524C72.7524 524 77.8776 527.124 81.4092 531.558C85.5433 536.748 86.3782 543.086 88.057 549.272C88.8923 552.35 90.329 555.406 92.8467 557.498C95.1366 559.4 98.0438 559.78 100.785 560.71C106.263 562.567 110.686 567.041 112.433 572.499C114.564 579.158 112.307 585.873 112.696 592.622C113.052 598.819 119.096 602.685 123.958 605.656C128.753 608.586 133.072 611.328 134.516 617.035C136.047 623.088 136.561 629.844 134.44 635.823C130.909 645.779 120.574 650.163 110.589 650.842C101.526 651.459 90.1313 650.491 83.3255 643.84C79.2531 639.86 77.7782 634.293 77.9612 628.755C78.0749 625.311 78.7496 621.899 79.622 618.571C80.2402 616.213 81.0755 613.864 81.3135 611.427C81.9461 604.942 76.0185 603.697 70.9728 601.916C64.5613 599.654 60.0726 595.38 56.9513 589.425C54.0446 583.881 52.825 577.658 54.5675 571.554C55.4574 568.437 57.0716 565.61 59.2607 563.205C60.2244 562.146 61.5826 561.263 62.4524 560.151C63.2643 559.112 63.0875 557.766 62.8077 556.55C61.5141 550.931 57.4834 546.278 56.0419 540.668C54.7406 535.605 55.5099 529.304 60.088 526.038C62.0659 524.627 64.5052 524.016 66.9227 524Z" fill="#C5CFD6"/>
<path fill-rule="evenodd" clip-rule="evenodd" d="M74.8665 538.641C81.0453 545.296 82.7248 554.325 83.2177 563.076C83.4938 567.983 83.2064 573.159 84.6323 577.919C85.8524 581.993 88.7126 585.107 91.6609 588.051C97.5956 593.975 104.214 599.999 105.95 608.574C106.969 613.606 106.281 618.804 107.688 623.78C108.968 628.304 111.221 632.748 113.962 636.568C116.168 639.645 119.043 642 121.455 644.867C122.191 645.743 123.245 647.031 122.942 648.267C122.586 649.714 120.763 650.172 119.469 649.945C116.454 649.415 113.915 646.503 111.943 644.386C109.059 641.291 106.609 637.962 104.618 634.227C102.407 630.08 100.626 625.679 99.8658 621.026C99.0765 616.199 99.4693 611.168 97.6669 606.535C94.6339 598.74 87.2772 594.14 81.9583 588.064C75.3314 580.494 76.3197 571.072 76.9985 561.759C77.3714 556.641 77.742 550.862 75.1844 546.189C74.2081 544.406 72.0314 542.743 71.6116 540.715C71.2271 538.858 73.3256 536.981 74.8665 538.641Z" fill="#AFB9C5"/>
<path fill-rule="evenodd" clip-rule="evenodd" d="M81.4559 648C81.4559 686.058 87.5987 706 120.028 706C152.457 706 158.6 686.058 158.6 648H81.4559Z" fill="#89C5CC"/>
<path fill-rule="evenodd" clip-rule="evenodd" d="M245.967 444.584C253.161 448.971 260.23 451.091 263.549 450.226C271.869 448.056 272.634 417.257 266.196 405.115C259.758 392.974 226.661 387.681 224.992 411.738C224.413 420.088 227.878 427.539 232.998 433.619L223.818 476.909H250.483L245.967 444.584Z" fill="#B28B67"/>
<path fill-rule="evenodd" clip-rule="evenodd" d="M255.664 391.891C252.02 390.767 246.731 390.386 244.506 390.644C245.772 387.576 246.274 384.157 245.865 380.829C245.467 377.595 244.039 374.841 242.718 371.955C242.109 370.625 241.419 369.303 240.39 368.285C239.342 367.249 238.015 366.565 236.624 366.238C235.201 365.904 233.712 365.932 232.286 366.235C231.655 366.369 231.089 366.661 230.471 366.823C229.837 366.989 229.53 366.588 229.07 366.185C227.962 365.214 226.338 364.734 224.936 364.562C223.363 364.37 221.731 364.61 220.231 365.133C218.771 365.642 217.369 366.469 216.313 367.674C215.843 368.21 215.416 368.821 215.139 369.495C215.025 369.771 215.007 369.935 214.734 370.036C214.482 370.13 214.187 370.133 213.926 370.222C211.409 371.085 209.257 373.053 208.085 375.58C207.401 377.054 207.077 379.649 207.166 382.558C207.254 385.468 209.851 393.058 212.279 395.827C214.446 398.298 217.632 399.929 220.706 400.643C218.666 403.003 217.307 405.952 216.303 408.952C215.212 412.21 214.536 415.595 214.287 419.045C214.05 422.322 214.028 425.788 214.787 428.995C215.498 431.994 217.017 434.455 219.553 436.016C220.715 436.731 221.964 437.268 223.221 437.759C224.46 438.243 225.703 438.713 227.001 438.985C229.457 439.498 232.287 439.41 234.179 437.432C234.86 436.719 235.61 435.823 236.108 434.952C236.287 434.639 236.394 434.434 236.177 434.127C235.917 433.761 235.496 433.48 235.161 433.193C233.254 431.557 232.074 429.373 231.776 426.778C231.474 424.145 232.173 420.747 234.703 419.598C237.826 418.179 241.266 419.807 244.042 421.325C245.222 417.112 247.644 413.319 251.442 411.386C255.644 409.248 260.465 408.998 264.783 407.164C265.908 406.686 267.054 406.143 267.882 405.169C268.228 404.762 268.635 404.234 268.773 403.696C268.954 402.989 268.504 402.396 268.155 401.844C266.309 398.921 259.307 393.015 255.664 391.891Z" fill="#191847"/>
<path fill-rule="evenodd" clip-rule="evenodd" d="M221.597 766.932C268.844 766.932 307.145 729.941 307.145 684.309C307.145 638.678 268.844 601.686 221.597 601.686C174.35 601.686 136.049 638.678 136.049 684.309C136.049 729.941 174.35 766.932 221.597 766.932Z" fill="#C5CFD6"/>
<path fill-rule="evenodd" clip-rule="evenodd" d="M354.598 679.903C358.73 694.548 369.025 722.306 383.26 754.184L396.787 750.191C384.952 676.837 375.104 628.273 369.462 613.492C365.735 603.726 337.535 604.87 340.779 624.52C342.14 632.761 347.522 654.826 354.598 679.903ZM298.998 627.947C276.939 632.571 231.201 648.918 218.14 654.142C209.932 657.425 215.223 668.558 222.226 667.584C223.412 667.419 227.607 666.944 233.867 666.236C253.974 663.96 295.381 659.273 326.786 654.699C343.322 652.291 334.427 620.952 317.258 624.268C311.481 625.384 305.337 626.618 298.998 627.947Z" fill="#B28B67"/>
<path fill-rule="evenodd" clip-rule="evenodd" d="M370.327 605.214C368.072 597.767 265.551 571.335 265.551 571.335H257.149V579.256L327.796 615.644C327.702 616.818 327.759 618.059 327.987 619.368C327.477 646.343 338.887 666.495 350.185 686.447C357.572 699.494 364.912 712.456 368.837 727.185L394.792 723.267C394.036 721.31 392.841 712.489 391.206 700.428C387.084 670.016 380.171 619.007 370.473 605.512C370.439 605.465 370.404 605.418 370.369 605.371C370.357 605.319 370.343 605.266 370.327 605.214Z" fill="#1F28CF"/>
<path fill-rule="evenodd" clip-rule="evenodd" d="M263.019 637.254C256.555 635.945 250.603 634.776 245.509 633.872C212.608 628.034 203.014 610.214 208.687 571.335H269.306C279.208 574.213 330.67 596.049 357.37 607.662C375.042 615.349 369.471 643.059 359.464 650.27C359.409 650.713 359.229 651.013 358.909 651.148C320.967 667.059 288.611 665.872 267.834 665.109C259.132 664.79 252.461 664.545 248.261 665.662L241.681 644.66L263.019 637.254Z" fill="#2B44FF"/>
<path fill-rule="evenodd" clip-rule="evenodd" d="M225.062 652.779C225.023 651.609 224.047 650.678 222.89 650.798C220.533 651.042 216.852 651.544 215.094 652.411C212.393 653.744 207.65 657.212 207.65 657.212C209.178 660.382 235.12 714.198 235.12 714.198C235.12 714.198 243.448 712.837 241.72 707.766C239.992 702.695 238.932 699.299 238.932 699.299L237.83 666.924C237.811 666.361 237.336 665.927 236.777 665.963L231.752 666.282C231.752 666.282 227.574 662.86 226.238 660.09C225.391 658.332 225.136 654.988 225.062 652.779Z" fill="#E4E4E4"/>
<path fill-rule="evenodd" clip-rule="evenodd" d="M379.654 746.925C378.58 746.441 377.297 746.92 376.895 748.028C376.08 750.279 374.917 753.835 374.917 755.81C374.917 758.85 375.918 764.684 375.918 764.684C379.405 764.684 438.581 764.684 438.581 764.684C438.581 764.684 441.024 756.513 435.761 755.862C430.499 755.211 427.018 754.686 427.018 754.686L397.795 741.504C397.278 741.271 396.671 741.513 396.457 742.038L394.541 746.741C394.541 746.741 389.669 749.041 386.623 749.041C384.704 749.041 381.65 747.825 379.654 746.925Z" fill="#E4E4E4"/>
<path fill-rule="evenodd" clip-rule="evenodd" d="M351.229 582.166L315.79 555.835L307.956 575.429L343.05 590.154C352.975 601.95 358.525 606.868 359.7 604.907C360.691 603.253 359.916 601.705 359.203 600.279C358.647 599.169 358.129 598.132 358.511 597.177C359.382 594.997 366.05 595.227 372.367 595.718C378.685 596.21 376.844 593.365 375.321 591.961C368.872 588.055 360.841 584.79 351.229 582.166ZM165.377 628.562C168.633 621.879 179.72 556.744 179.72 556.744L202.938 556.836C202.938 556.836 181.434 627.072 179.72 631.369C177.494 636.952 181.276 645.063 183.84 650.563C184.237 651.414 184.605 652.202 184.916 652.909C181.358 654.52 179.649 652.573 177.847 650.52C175.811 648.201 173.658 645.748 168.588 648.134C166.629 649.056 164.776 650.146 162.965 651.211C156.71 654.89 150.964 658.27 143.147 653.389C141.908 652.616 140.55 649.703 143.831 647.426C152.006 641.755 163.786 631.829 165.377 628.562Z" fill="#B28B67"/>
<path fill-rule="evenodd" clip-rule="evenodd" d="M245.7 458.172L255.308 456.505C290.953 487.66 305.593 547.513 349.285 579.22L338.769 592.409C262.971 582.914 244.184 509.907 245.7 458.172Z" fill="#E87613"/>
<path fill-rule="evenodd" clip-rule="evenodd" d="M203.821 580.328C203.821 580.328 261.602 580.328 288.826 580.328C292.71 580.328 291.978 574.653 291.417 571.789C284.937 538.74 259.64 503.114 259.64 456.068L235.12 452.178C214.839 485.18 207.826 525.813 203.821 580.328Z" fill="#DDE3E9"/>
<path fill-rule="evenodd" clip-rule="evenodd" d="M194.263 603.934C190.442 613.218 186.696 621.319 183.166 627.541H164.936C162.974 563.375 186.984 514.001 207.078 484.23C202.616 483.907 198.589 482.018 196.044 477.371C187.082 461.009 190.319 452.001 199.896 449.04C205.163 447.411 210.116 448.523 216.045 449.853C220.897 450.942 226.402 452.177 233.267 452.178C233.269 452.178 233.272 452.178 233.274 452.178C233.939 452.178 234.545 452.223 235.094 452.309L243.23 452.779C243.23 452.779 276.265 566.058 261.452 603.934H194.263Z" fill="#FF9B21"/>
<path fill-rule="evenodd" clip-rule="evenodd" d="M194.263 603.934C199.275 591.754 204.415 577.536 209.362 562.853C211.203 579.023 214.27 595.263 219.375 603.934H194.263Z" fill="black" fill-opacity="0.1"/>
<path fill-rule="evenodd" clip-rule="evenodd" d="M669.908 361.65C662.703 366.041 655.623 368.162 652.3 367.296C643.967 365.125 643.201 334.302 649.649 322.151C656.096 309.999 689.243 304.703 690.914 328.779C691.493 337.134 688.023 344.592 682.896 350.676L692.089 394H665.385L669.908 361.65Z" fill="#B28B67"/>
<path fill-rule="evenodd" clip-rule="evenodd" d="M664.869 308.146C668.389 307.562 677.865 307.161 679.613 307.161C680.73 307.161 681.94 307.419 682.601 306.383C683.143 305.533 682.945 304.098 683.106 303.112C683.294 301.968 683.561 300.838 683.83 299.711C684.598 296.504 685.758 293.453 687.382 290.589C690.429 285.215 694.892 281.005 700.527 278.556C706.749 275.851 713.791 275.232 720.484 275.78C727.647 276.367 734.13 278.758 740.893 281.008C747.337 283.152 754.087 283.995 760.828 282.949C767.619 281.894 772.75 278.172 778.478 274.64C784.342 271.024 791.043 268.659 797.975 269.203C804.446 269.71 810.41 272.412 815.761 276.021C820.768 279.397 824.899 283.46 827.231 289.177C829.74 295.327 829.737 302.078 825.612 307.514C819.632 315.392 808.53 317.43 799.293 317.227C793.951 317.11 788.704 316.124 783.66 314.331C776.933 311.938 771.12 307.884 764.827 304.594C761.874 303.05 758.821 301.782 755.622 300.869C752.517 299.983 749.458 299.576 746.647 301.472C743.673 303.479 741.008 305.45 737.606 306.706C734.342 307.91 730.885 308.584 727.408 308.557C720.642 308.504 713.972 306.373 707.401 304.945C702.043 303.781 696.309 302.621 690.846 303.74C688.567 304.207 685.237 305.171 684.414 307.567C698.271 310.106 703.714 327.434 699.807 340.154C697.699 347.02 685.024 355.046 680.096 351.437C676.974 349.15 678.87 346.148 680.096 344.166C682.445 340.371 683.249 335.496 678.902 332.854C675.153 330.575 671.211 335.987 671.136 335.981C670.106 335.899 661.201 330.807 655.066 323.377C649.014 323.74 648.096 319.705 649.541 316.405C650.986 313.106 660.006 308.953 664.869 308.146Z" fill="#191847"/>
<path fill-rule="evenodd" clip-rule="evenodd" d="M709.856 489L668.048 627.467L647.795 745.223H631.915L653.315 489H709.856Z" fill="#997659"/>
<path fill-rule="evenodd" clip-rule="evenodd" d="M724.813 489C721.973 565.026 725.315 604.241 725.951 611.148C726.586 618.055 735.289 662.842 755.893 747.542L738.972 741.655C706.41 663.973 695.314 623.6 691.58 613.399C687.845 603.199 677.926 561.732 661.823 489H724.813Z" fill="#B28B67"/>
<path fill-rule="evenodd" clip-rule="evenodd" d="M752.892 740.219C753.966 739.734 755.25 740.215 755.651 741.323C756.467 743.577 757.63 747.138 757.63 749.115C757.63 752.159 756.629 758 756.629 758C753.142 758 693.965 758 693.965 758C693.965 758 691.523 749.819 696.785 749.167C702.048 748.515 705.529 747.989 705.529 747.989L734.752 734.791C735.268 734.558 735.876 734.801 736.089 735.326L738.006 740.035C738.006 740.035 742.878 742.338 745.923 742.338C747.842 742.338 750.895 741.12 752.892 740.219Z" fill="#E4E4E4"/>
<path fill-rule="evenodd" clip-rule="evenodd" d="M648.456 740.219C649.531 739.734 650.815 740.215 651.216 741.323C652.032 743.577 653.195 747.138 653.195 749.115C653.195 752.159 652.194 758 652.194 758C648.707 758 589.53 758 589.53 758C589.53 758 587.088 749.819 592.35 749.167C597.613 748.515 601.094 747.989 601.094 747.989L630.317 734.791C630.833 734.558 631.441 734.801 631.654 735.326L633.571 740.035C633.571 740.035 638.443 742.338 641.488 742.338C643.407 742.338 646.46 741.12 648.456 740.219Z" fill="#E4E4E4"/>
<path fill-rule="evenodd" clip-rule="evenodd" d="M715.411 489L697.635 559.547H643.339L651.435 489H715.411Z" fill="#69A1AC"/>
<path fill-rule="evenodd" clip-rule="evenodd" d="M725.41 489C734.184 515.642 728.743 559.547 728.743 559.547H673.337L658.101 489H725.41Z" fill="#89C5CC"/>
<path fill-rule="evenodd" clip-rule="evenodd" d="M785.867 524.484C781.719 518.331 753.759 435.535 753.759 435.535L729.645 439.055C729.645 439.055 769.737 525.272 772.028 529.282C775.004 534.491 772.368 543.048 770.581 548.851C770.305 549.748 770.049 550.58 769.837 551.323C773.587 552.415 775.015 550.248 776.52 547.963C778.219 545.383 780.018 542.652 785.374 544.299C787.443 544.935 789.431 545.752 791.373 546.55C798.082 549.308 804.246 551.841 811.327 545.912C812.45 544.972 813.396 541.899 809.829 540.109C800.942 535.651 787.894 527.491 785.867 524.484ZM578.055 520.205L604.996 485.038L617.879 501.669L588.106 525.594C581.767 539.69 577.764 545.96 576.099 544.404C574.694 543.092 575.018 541.39 575.316 539.822C575.548 538.601 575.764 537.46 575.137 536.65C573.703 534.8 567.347 536.879 561.399 539.113C555.45 541.347 556.448 538.102 557.531 536.329C562.675 530.78 569.516 525.405 578.055 520.205Z" fill="#B28B67"/>
<path fill-rule="evenodd" clip-rule="evenodd" d="M670.637 376.904L660.88 376.608C653.315 432.289 581.272 479.748 579.321 500.438C578.605 508.026 584.356 510.993 581.962 513.613L595.618 521.003C597.372 518.235 602.475 522.117 611.382 517.629C620.289 513.141 679.451 440.309 670.637 376.904Z" fill="#DB2721"/>
<path fill-rule="evenodd" clip-rule="evenodd" d="M686.471 363.221C688.631 362.757 690.751 364.133 691.205 366.295L692.663 373.225C712.53 384.604 762.755 419.904 785.104 495.729C787.452 503.694 785.858 508.366 784.584 512.098C783.713 514.652 782.992 516.766 783.784 519.194L768.205 526.012C767.949 524.172 765.712 523.063 762.825 521.632C758.628 519.551 753.059 516.789 750.214 510.112C747.516 503.782 743.764 495.931 739.375 487.227C740.764 499.383 740.036 510.847 736.36 520.778C727.19 545.557 652.192 530.469 641.459 508.046C635.731 496.08 639.924 484.755 645.469 469.778C652.508 450.765 661.726 425.867 655.6 386.3L653.113 374.476C652.658 372.315 654.041 370.187 656.201 369.723L686.471 363.221Z" fill="#FF4133"/>
</svg>
